<svg width="741" height="628" viewBox="0 0 741 628" fill="none" xmlns="http://www.w3.org/2000/svg">
<path d="M479.509 530.588C478.033 530.433 476.7 531.504 476.656 532.988C476.546 536.764 477.035 540.54 478.112 544.173C479.443 548.667 481.647 552.854 484.597 556.496C487.546 560.138 491.185 563.163 495.303 565.399C498.634 567.207 502.226 568.47 505.943 569.146C507.403 569.412 508.728 568.331 508.883 566.855V566.855C509.038 565.379 507.964 564.068 506.507 563.783C503.491 563.193 500.578 562.147 497.868 560.676C494.369 558.777 491.279 556.207 488.773 553.113C486.268 550.02 484.396 546.463 483.265 542.646C482.389 539.69 481.971 536.623 482.02 533.55C482.043 532.066 480.985 530.743 479.509 530.588V530.588Z" fill="#F59FAF"/>
<path d="M498.774 559.003L707 559.003C707 421.563 638.561 390.489 604.341 392.132L498.774 392.132L498.774 559.003Z" fill="#8569D7"/>
<path d="M458.359 589.754L666.584 589.754C666.584 452.314 598.145 421.24 563.926 422.883L458.359 422.883L458.359 589.754Z" stroke="#F8DC71" stroke-width="5"/>
<circle cx="197.417" cy="182.088" r="104.552" fill="#F59FAF"/>
<line x1="597.72" y1="183.15" x2="592.086" y2="188.784" stroke="#F8DC71" stroke-width="1.5" stroke-linecap="round"/>
<line x1="592.107" y1="183.077" x2="597.74" y2="188.711" stroke="#F8DC71" stroke-width="1.5" stroke-linecap="round"/>
<line x1="0.75" y1="-0.75" x2="8.71737" y2="-0.75" transform="matrix(0.707107 0.707107 0.707107 -0.707107 646.811 182.089)" stroke="#F8DC71" stroke-width="1.5" stroke-linecap="round"/>
<line x1="0.75" y1="-0.75" x2="8.71737" y2="-0.75" transform="matrix(-0.707107 0.707107 0.707107 0.707107 653.485 183.077)" stroke="#F8DC71" stroke-width="1.5" stroke-linecap="round"/>
<line x1="677.112" y1="214.414" x2="682.746" y2="208.78" stroke="#F8DC71" stroke-width="1.5" stroke-linecap="round"/>
<line x1="682.726" y1="214.487" x2="677.092" y2="208.853" stroke="#F8DC71" stroke-width="1.5" stroke-linecap="round"/>
<line x1="611.024" y1="196.202" x2="605.391" y2="201.836" stroke="#F8DC71" stroke-width="1.5" stroke-linecap="round"/>
<line x1="605.411" y1="196.129" x2="611.045" y2="201.763" stroke="#F8DC71" stroke-width="1.5" stroke-linecap="round"/>
<line x1="0.75" y1="-0.75" x2="8.71737" y2="-0.75" transform="matrix(0.707107 0.707107 0.707107 -0.707107 633.506 195.142)" stroke="#F8DC71" stroke-width="1.5" stroke-linecap="round"/>
<line x1="0.75" y1="-0.75" x2="8.71737" y2="-0.75" transform="matrix(-0.707107 0.707107 0.707107 0.707107 640.181 196.129)" stroke="#F8DC71" stroke-width="1.5" stroke-linecap="round"/>
<line x1="663.808" y1="201.361" x2="669.441" y2="195.727" stroke="#F8DC71" stroke-width="1.5" stroke-linecap="round"/>
<line x1="669.422" y1="201.434" x2="663.788" y2="195.8" stroke="#F8DC71" stroke-width="1.5" stroke-linecap="round"/>
<line x1="597.731" y1="208.853" x2="592.097" y2="214.487" stroke="#F8DC71" stroke-width="1.5" stroke-linecap="round"/>
<line x1="592.117" y1="208.78" x2="597.751" y2="214.414" stroke="#F8DC71" stroke-width="1.5" stroke-linecap="round"/>
<line x1="0.75" y1="-0.75" x2="8.71737" y2="-0.75" transform="matrix(0.707107 0.707107 0.707107 -0.707107 646.8 207.792)" stroke="#F8DC71" stroke-width="1.5" stroke-linecap="round"/>
<line x1="0.75" y1="-0.75" x2="8.71737" y2="-0.75" transform="matrix(-0.707107 0.707107 0.707107 0.707107 653.475 208.78)" stroke="#F8DC71" stroke-width="1.5" stroke-linecap="round"/>
<line x1="677.101" y1="188.709" x2="682.734" y2="183.076" stroke="#F8DC71" stroke-width="1.5" stroke-linecap="round"/>
<line x1="682.715" y1="188.782" x2="677.081" y2="183.148" stroke="#F8DC71" stroke-width="1.5" stroke-linecap="round"/>
<line x1="624.82" y1="208.853" x2="619.187" y2="214.487" stroke="#F8DC71" stroke-width="1.5" stroke-linecap="round"/>
<line x1="619.206" y1="208.78" x2="624.84" y2="214.414" stroke="#F8DC71" stroke-width="1.5" stroke-linecap="round"/>
<line x1="624.793" y1="183.16" x2="619.159" y2="188.794" stroke="#F8DC71" stroke-width="1.5" stroke-linecap="round"/>
<line x1="619.179" y1="183.087" x2="624.813" y2="188.721" stroke="#F8DC71" stroke-width="1.5" stroke-linecap="round"/>
<ellipse cx="551.489" cy="74.9006" rx="16.6932" ry="15.8146" fill="#F59FAF"/>
<circle r="10.5431" transform="matrix(1 0 0 -1 340.628 48.5429)" fill="#F8DC71"/>
<path d="M154.182 436.407C154.633 435.236 154.052 433.912 152.85 433.551C149.791 432.63 146.601 432.199 143.398 432.279C139.436 432.379 135.533 433.257 131.911 434.865C128.289 436.472 125.02 438.777 122.289 441.649C120.081 443.97 118.26 446.625 116.89 449.511C116.352 450.645 116.944 451.964 118.115 452.415V452.415C119.286 452.866 120.592 452.277 121.145 451.151C122.29 448.818 123.785 446.67 125.581 444.781C127.901 442.342 130.679 440.384 133.755 439.018C136.831 437.653 140.147 436.907 143.511 436.822C146.118 436.757 148.714 437.09 151.212 437.806C152.418 438.151 153.731 437.578 154.182 436.407V436.407Z" fill="#F59FAF"/>
<ellipse cx="378.847" cy="564.275" rx="10.9824" ry="10.5431" fill="#F59FAF"/>
<ellipse cx="138.991" cy="293.783" rx="33.8257" ry="32.5078" fill="#6FD2DB"/>
<circle cx="201.81" cy="545.824" r="18.4504" fill="#8569D7"/>
<path d="M640.558 289.285C641.349 288.48 641.349 287.189 640.558 286.384V286.384C639.747 285.559 638.418 285.559 637.607 286.384L626.98 297.192C625.067 299.138 625.067 302.258 626.98 304.203L637.607 315.012C638.418 315.837 639.747 315.837 640.558 315.012V315.012C641.349 314.207 641.349 312.916 640.558 312.111L632.783 304.204C630.87 302.258 630.87 299.138 632.783 297.193L640.558 289.285Z" fill="#6FD2DB"/>
<path d="M290.911 526.185C291.506 526.827 292.521 526.827 293.115 526.185V526.185C293.65 525.609 293.65 524.718 293.115 524.142L286.747 517.272C284.768 515.138 281.392 515.138 279.413 517.272L273.045 524.142C272.511 524.718 272.511 525.609 273.045 526.185V526.185C273.64 526.827 274.654 526.827 275.249 526.185L279.413 521.693C281.392 519.559 284.768 519.559 286.747 521.693L290.911 526.185Z" fill="#F8DC71"/>
<path d="M35.426 265.66C34.6344 266.465 34.6344 267.756 35.426 268.561V268.561C36.2367 269.386 37.5659 269.386 38.3766 268.561L49.0036 257.752C50.9165 255.807 50.9165 252.687 49.0036 250.741L38.3765 239.933C37.5658 239.108 36.2367 239.108 35.426 239.933V239.933C34.6345 240.738 34.6345 242.029 35.426 242.834L43.2008 250.741C45.1137 252.687 45.1137 255.807 43.2008 257.752L35.426 265.66Z" fill="#8569D7"/>
<path d="M84.0547 144.534C83.8703 144.534 83.6472 144.426 83.4488 144.139C83.2523 143.856 83.1143 143.436 83.1143 142.949C83.1143 142.465 83.2512 142.046 83.4476 141.761C83.6456 141.473 83.8687 141.364 84.0547 141.364C84.2391 141.364 84.4623 141.472 84.6606 141.759C84.8572 142.043 84.9952 142.462 84.9952 142.949C84.9952 143.433 84.8583 143.853 84.6619 144.138C84.4639 144.425 84.2408 144.534 84.0547 144.534Z" stroke="#F8DC71"/>
<path d="M74.816 142.949C74.816 143.436 74.6788 143.856 74.4827 144.14C74.2853 144.425 74.0624 144.534 73.8755 144.534C73.6887 144.534 73.4658 144.425 73.2684 144.14C73.0723 143.856 72.9351 143.436 72.9351 142.949C72.9351 142.462 73.0723 142.043 73.2684 141.759C73.4658 141.473 73.6887 141.364 73.8755 141.364C74.0624 141.364 74.2853 141.473 74.4827 141.759C74.6788 142.043 74.816 142.462 74.816 142.949Z" stroke="#F8DC71"/>
<path d="M95.17 142.949C95.17 143.436 95.0328 143.856 94.8367 144.14C94.6393 144.425 94.4164 144.534 94.2295 144.534C94.0427 144.534 93.8198 144.425 93.6224 144.14C93.4263 143.856 93.2891 143.436 93.2891 142.949C93.2891 142.462 93.4263 142.043 93.6224 141.759C93.8198 141.473 94.0427 141.364 94.2295 141.364C94.4163 141.364 94.6393 141.473 94.8367 141.759C95.0328 142.043 95.17 142.462 95.17 142.949Z" stroke="#F8DC71"/>
<path d="M115.529 142.949C115.529 143.436 115.392 143.856 115.196 144.14C114.999 144.425 114.776 144.534 114.589 144.534C114.402 144.534 114.179 144.425 113.982 144.14C113.786 143.856 113.648 143.436 113.648 142.949C113.648 142.462 113.786 142.043 113.982 141.759C114.179 141.473 114.402 141.364 114.589 141.364C114.776 141.364 114.999 141.473 115.196 141.759C115.392 142.043 115.529 142.462 115.529 142.949Z" stroke="#F8DC71"/>
<path d="M105.349 142.949C105.349 143.436 105.212 143.856 105.016 144.14C104.818 144.425 104.596 144.534 104.409 144.534C104.222 144.534 103.999 144.425 103.802 144.14C103.606 143.856 103.468 143.436 103.468 142.949C103.468 142.462 103.606 142.043 103.802 141.759C103.999 141.473 104.222 141.364 104.409 141.364C104.596 141.364 104.818 141.473 105.016 141.759C105.212 142.043 105.349 142.462 105.349 142.949Z" stroke="#F8DC71"/>
<path d="M84.9342 128.954C84.9342 129.441 84.7969 129.86 84.6009 130.144C84.4034 130.43 84.1805 130.539 83.9937 130.539C83.8069 130.539 83.584 130.43 83.3865 130.144C83.1905 129.86 83.0532 129.441 83.0532 128.954C83.0532 128.466 83.1905 128.047 83.3865 127.763C83.584 127.477 83.8069 127.368 83.9937 127.368C84.1805 127.368 84.4034 127.477 84.6009 127.763C84.7969 128.047 84.9342 128.466 84.9342 128.954Z" stroke="#F8DC71"/>
<path d="M95.1085 128.954C95.1085 129.441 94.9712 129.86 94.7752 130.144C94.5777 130.43 94.3548 130.539 94.168 130.539C93.9812 130.539 93.7583 130.43 93.5608 130.144C93.3648 129.86 93.2275 129.441 93.2275 128.954C93.2275 128.466 93.3648 128.047 93.5608 127.763C93.7583 127.477 93.9812 127.368 94.168 127.368C94.3548 127.368 94.5777 127.477 94.7752 127.763C94.9712 128.047 95.1085 128.466 95.1085 128.954Z" stroke="#F8DC71"/>
<path d="M74.7564 128.954C74.7564 129.441 74.6192 129.86 74.4231 130.144C74.2257 130.43 74.0028 130.539 73.816 130.539C73.6292 130.539 73.4062 130.43 73.2088 130.144C73.0127 129.86 72.8755 129.441 72.8755 128.954C72.8755 128.466 73.0127 128.047 73.2088 127.763C73.4062 127.477 73.6292 127.368 73.816 127.368C74.0028 127.368 74.2257 127.477 74.4231 127.763C74.6192 128.047 74.7564 128.466 74.7564 128.954Z" stroke="#F8DC71"/>
<path d="M115.468 128.954C115.468 129.441 115.331 129.86 115.135 130.144C114.937 130.43 114.714 130.539 114.527 130.539C114.341 130.539 114.118 130.43 113.92 130.144C113.724 129.86 113.587 129.441 113.587 128.954C113.587 128.466 113.724 128.047 113.92 127.763C114.118 127.477 114.341 127.368 114.527 127.368C114.714 127.368 114.937 127.477 115.135 127.763C115.331 128.047 115.468 128.466 115.468 128.954Z" stroke="#F8DC71"/>
<path d="M104.348 130.539C104.164 130.539 103.941 130.43 103.742 130.144C103.546 129.86 103.408 129.441 103.408 128.954C103.408 128.465 103.545 128.046 103.741 127.763C103.938 127.477 104.161 127.368 104.348 127.368C104.531 127.368 104.755 127.477 104.954 127.765C105.151 128.051 105.289 128.471 105.289 128.954C105.289 129.437 105.152 129.857 104.955 130.142C104.757 130.429 104.534 130.539 104.348 130.539Z" stroke="#F8DC71"/>
<path d="M115.408 114.951C115.408 115.438 115.271 115.857 115.074 116.141C114.877 116.427 114.654 116.536 114.467 116.536C114.281 116.536 114.058 116.427 113.86 116.141C113.664 115.857 113.527 115.438 113.527 114.951C113.527 114.463 113.664 114.044 113.86 113.76C114.058 113.474 114.281 113.365 114.467 113.365C114.654 113.365 114.877 113.474 115.074 113.76C115.271 114.044 115.408 114.463 115.408 114.951Z" stroke="#F8DC71"/>
<path d="M73.7535 116.536C73.5691 116.536 73.3459 116.427 73.1476 116.141C72.951 115.857 72.813 115.438 72.813 114.951C72.813 114.463 72.9502 114.043 73.146 113.76C73.3431 113.474 73.566 113.365 73.7535 113.365C73.9379 113.365 74.161 113.474 74.3593 113.76C74.5559 114.044 74.6939 114.463 74.6939 114.951C74.6939 115.434 74.557 115.854 74.3606 116.139C74.1626 116.426 73.9395 116.536 73.7535 116.536Z" stroke="#F8DC71"/>
<path d="M105.228 114.951C105.228 115.438 105.091 115.857 104.895 116.141C104.697 116.427 104.474 116.536 104.288 116.536C104.101 116.536 103.878 116.427 103.68 116.141C103.484 115.857 103.347 115.438 103.347 114.951C103.347 114.463 103.484 114.044 103.68 113.76C103.878 113.474 104.101 113.365 104.288 113.365C104.474 113.365 104.697 113.474 104.895 113.76C105.091 114.044 105.228 114.463 105.228 114.951Z" stroke="#F8DC71"/>
<path d="M95.0479 114.951C95.0479 115.438 94.9107 115.857 94.7146 116.141C94.5172 116.427 94.2943 116.536 94.1075 116.536C93.9207 116.536 93.6977 116.427 93.5003 116.141C93.3043 115.857 93.167 115.438 93.167 114.951C93.167 114.463 93.3043 114.044 93.5003 113.76C93.6977 113.474 93.9207 113.365 94.1075 113.365C94.2943 113.365 94.5172 113.474 94.7146 113.76C94.9107 114.044 95.0479 114.463 95.0479 114.951Z" stroke="#F8DC71"/>
<path d="M84.8731 114.951C84.8731 115.438 84.7359 115.857 84.5398 116.141C84.3424 116.427 84.1195 116.536 83.9327 116.536C83.7459 116.536 83.5229 116.427 83.3255 116.141C83.1294 115.857 82.9922 115.438 82.9922 114.951C82.9922 114.463 83.1294 114.044 83.3255 113.76C83.5229 113.474 83.7459 113.365 83.9327 113.365C84.1195 113.365 84.3424 113.474 84.5398 113.76C84.7359 114.044 84.8731 114.463 84.8731 114.951Z" stroke="#F8DC71"/>
<path d="M84.8121 100.955C84.8121 101.442 84.6749 101.862 84.4788 102.145C84.2814 102.431 84.0585 102.54 83.8716 102.54C83.6848 102.54 83.4619 102.431 83.2645 102.145C83.0684 101.862 82.9312 101.442 82.9312 100.955C82.9312 100.468 83.0684 100.048 83.2645 99.7646C83.4619 99.4787 83.6848 99.3696 83.8716 99.3696C84.0584 99.3696 84.2814 99.4787 84.4788 99.7646C84.6749 100.048 84.8121 100.468 84.8121 100.955Z" stroke="#F8DC71"/>
<path d="M74.6324 100.956C74.6324 101.444 74.4952 101.863 74.2991 102.147C74.1017 102.433 73.8788 102.542 73.6919 102.542C73.5051 102.542 73.2822 102.433 73.0848 102.147C72.8887 101.863 72.7515 101.444 72.7515 100.956C72.7515 100.469 72.8887 100.05 73.0848 99.7661C73.2822 99.4802 73.5051 99.3711 73.6919 99.3711C73.8788 99.3711 74.1017 99.4802 74.2991 99.7661C74.4952 100.05 74.6324 100.469 74.6324 100.956Z" stroke="#F8DC71"/>
<path d="M105.167 100.955C105.167 101.442 105.029 101.862 104.833 102.145C104.636 102.431 104.413 102.54 104.226 102.54C104.039 102.54 103.816 102.431 103.619 102.145C103.423 101.862 103.286 101.442 103.286 100.955C103.286 100.468 103.423 100.048 103.619 99.7646C103.816 99.4787 104.039 99.3696 104.226 99.3696C104.413 99.3696 104.636 99.4787 104.833 99.7646C105.029 100.048 105.167 100.468 105.167 100.955Z" stroke="#F8DC71"/>
<path d="M94.9874 100.955C94.9874 101.442 94.8501 101.862 94.6541 102.145C94.4566 102.431 94.2337 102.54 94.0469 102.54C93.8601 102.54 93.6372 102.431 93.4397 102.145C93.2437 101.862 93.1064 101.442 93.1064 100.955C93.1064 100.468 93.2437 100.048 93.4397 99.7646C93.6372 99.4787 93.8601 99.3696 94.0469 99.3696C94.2337 99.3696 94.4566 99.4787 94.6541 99.7646C94.8501 100.048 94.9874 100.468 94.9874 100.955Z" stroke="#F8DC71"/>
<path d="M115.347 100.955C115.347 101.442 115.21 101.862 115.013 102.145C114.816 102.431 114.593 102.54 114.406 102.54C114.219 102.54 113.997 102.431 113.799 102.145C113.603 101.862 113.466 101.442 113.466 100.955C113.466 100.468 113.603 100.048 113.799 99.7646C113.997 99.4787 114.219 99.3696 114.406 99.3696C114.593 99.3696 114.816 99.4787 115.013 99.7646C115.21 100.048 115.347 100.468 115.347 100.955Z" stroke="#F8DC71"/>
<path d="M466.695 87.0314C467.266 87.6082 468.197 87.6082 468.768 87.0314V87.0314C469.329 86.4636 469.329 85.5499 468.768 84.9822L462.354 78.4959C460.397 76.5167 457.2 76.5167 455.243 78.4959L448.829 84.9822C448.268 85.5499 448.268 86.4636 448.829 87.0313V87.0313C449.399 87.6081 450.331 87.6081 450.901 87.0313L455.243 82.6407C457.2 80.6616 460.397 80.6616 462.354 82.6407L466.695 87.0314Z" fill="#8569D7"/>
</svg>
