<svg width="65" height="79" viewBox="0 0 65 79" fill="none" xmlns="http://www.w3.org/2000/svg">
<path d="M46.0817 51.6491C44.3634 51.0765 42.865 50.5774 41.8145 50.2272V46.6591C46.3933 44.0337 49.821 39.6199 51.1386 34.3775H54.374C56.3184 34.3775 58.1446 33.6204 59.5164 32.2468C60.89 30.8738 61.6464 29.0476 61.6464 27.1044V22.1464C61.6464 20.2038 60.89 18.3776 59.5176 17.0058C58.1446 15.631 56.3178 14.874 54.374 14.874H51.7304V14.707C51.7304 6.5974 45.133 0 37.0234 0H27.102C18.993 0 12.395 6.5974 12.395 14.707V14.874H9.75144C7.80766 14.874 5.98081 15.631 4.60962 17.0046C3.23541 18.3782 2.479 20.2038 2.479 22.147V37.021C2.479 43.7649 7.96558 49.2514 14.71 49.2514C15.9878 49.2514 17.0245 48.2154 17.0245 46.937C17.0245 45.6592 15.9878 44.6225 14.71 44.6225C10.5181 44.6225 7.1079 41.2129 7.1079 37.021V33.882C7.93966 34.2063 8.83169 34.3775 9.75144 34.3775H12.9796C13.8319 37.7979 15.5978 40.9351 18.1552 43.4918C19.4119 44.7485 20.8096 45.8135 22.3116 46.6736V50.2272C21.261 50.5774 19.7621 51.0771 18.0437 51.6497C7.25135 55.2473 0 65.308 0 76.6855C0 77.9639 1.03608 79 2.31445 79H61.8116C63.0893 79 64.126 77.9627 64.126 76.6843C64.126 65.308 56.8747 55.2473 46.0817 51.6491ZM56.2436 20.278C56.7427 20.777 57.0175 21.4406 57.0175 22.1464V27.1044C57.0175 27.8108 56.7427 28.4744 56.2424 28.9747C55.744 29.4737 55.0804 29.7486 54.374 29.7486H51.7304V19.5029H54.374C55.0804 19.5029 55.744 19.7777 56.2436 20.278ZM27.1026 4.62891H37.0234C42.5805 4.62891 47.1015 9.14993 47.1015 14.707V19.832H37.3248C32.3758 19.832 28.0808 16.482 26.8748 11.6838C26.624 10.6531 25.6989 9.91599 24.626 9.91599C24.2662 9.91599 23.9124 9.99976 23.5905 10.1601L17.1083 13.4015C17.7502 8.45921 21.9873 4.62891 27.1026 4.62891ZM12.395 29.7486H9.75144C9.04505 29.7486 8.38145 29.4737 7.8824 28.9735C7.38274 28.4744 7.1079 27.8108 7.1079 27.105V22.147C7.1079 21.4412 7.38274 20.777 7.88361 20.2768C8.38145 19.7783 9.04505 19.5035 9.75144 19.5035H12.395V29.7486ZM17.0239 29.5864V18.6193L23.3175 15.4725C25.7857 20.8783 31.2059 24.4609 37.3248 24.4609H47.1015V29.584C47.1015 37.8763 40.3553 44.6225 32.0606 44.6225C28.0447 44.6225 24.2686 43.0585 21.428 40.2184C18.588 37.3784 17.0239 33.603 17.0239 29.5864ZM32.063 49.2514C33.8344 49.2514 35.5516 49.0146 37.1855 48.5734V51.8462V51.8546V51.895C37.1855 54.7199 34.8874 57.0175 32.063 57.0175C29.2381 57.0175 26.9405 54.7199 26.9405 51.895V51.8546C26.9405 51.8516 26.9405 51.8492 26.9405 51.8462V48.5806C28.5901 49.0224 30.3085 49.2514 32.063 49.2514ZM4.75066 74.3711C5.64268 65.9619 11.3475 58.7612 19.5071 56.0405C20.7487 55.627 21.8752 55.2515 22.8016 54.9429C24.0848 58.8311 27.7499 61.6464 32.063 61.6464C36.3755 61.6464 40.0412 58.8311 41.3238 54.9429C42.2502 55.2515 43.3773 55.627 44.6183 56.0405C52.778 58.7606 58.4827 65.9613 59.3748 74.3711H4.75066Z" fill="#F59FAF"/>
</svg>
