<svg width="79" height="79" viewBox="0 0 79 79" fill="none" xmlns="http://www.w3.org/2000/svg">
<path d="M39.5 0C17.7505 0 0 17.7517 0 39.5C0 61.2495 17.7517 79 39.5 79C61.2495 79 79 61.2481 79 39.5C79 17.7505 61.2483 0 39.5 0ZM39.5 74.3711C20.272 74.3711 4.62891 58.728 4.62891 39.5C4.62891 20.272 20.272 4.62891 39.5 4.62891C58.728 4.62891 74.3711 20.272 74.3711 39.5C74.3711 58.728 58.728 74.3711 39.5 74.3711Z" fill="#F59FAF"/>
<path d="M19.8612 61.4531C21.1394 61.4531 22.1757 60.4169 22.1757 59.1387C22.1757 57.8604 21.1394 56.8242 19.8612 56.8242C18.583 56.8242 17.5468 57.8604 17.5468 59.1387C17.5468 60.4169 18.583 61.4531 19.8612 61.4531Z" fill="#F59FAF"/>
<path d="M59.1388 22.1758C60.417 22.1758 61.4532 21.1396 61.4532 19.8613C61.4532 18.5831 60.417 17.5469 59.1388 17.5469C57.8606 17.5469 56.8243 18.5831 56.8243 19.8613C56.8243 21.1396 57.8606 22.1758 59.1388 22.1758Z" fill="#F59FAF"/>
<path d="M18.2247 18.2248C17.3208 19.1286 17.3208 20.594 18.2247 21.4979C19.1285 22.4017 20.5939 22.4017 21.4978 21.4979C22.4016 20.594 22.4016 19.1286 21.4978 18.2248C20.594 17.3209 19.1285 17.3209 18.2247 18.2248Z" fill="#F59FAF"/>
<path d="M57.5022 57.5021C56.5984 58.406 56.5984 59.8713 57.5022 60.7752C58.4061 61.6791 59.8715 61.6791 60.7753 60.7752C61.6792 59.8713 61.6792 58.406 60.7753 57.5021C59.8715 56.5983 58.406 56.5983 57.5022 57.5021Z" fill="#F59FAF"/>
<path d="M39.5 18.6699C40.7782 18.6699 41.8145 17.6337 41.8145 16.3555V11.7266C41.8145 10.4484 40.7782 9.41211 39.5 9.41211C38.2218 9.41211 37.1855 10.4484 37.1855 11.7266V16.3555C37.1855 17.6337 38.2218 18.6699 39.5 18.6699Z" fill="#F59FAF"/>
<path d="M39.5 60.3301C38.2218 60.3301 37.1855 61.3663 37.1855 62.6445V67.2734C37.1855 68.5516 38.2218 69.5879 39.5 69.5879C40.7782 69.5879 41.8145 68.5516 41.8145 67.2734V62.6445C41.8145 61.3663 40.7782 60.3301 39.5 60.3301Z" fill="#F59FAF"/>
<path d="M18.6699 39.5C18.6699 38.2218 17.6337 37.1855 16.3555 37.1855H11.7266C10.4484 37.1855 9.41211 38.2218 9.41211 39.5C9.41211 40.7782 10.4484 41.8145 11.7266 41.8145H16.3555C17.6337 41.8145 18.6699 40.7782 18.6699 39.5Z" fill="#F59FAF"/>
<path d="M60.3301 39.5C60.3301 40.7782 61.3663 41.8145 62.6445 41.8145H67.2734C68.5516 41.8145 69.5879 40.7782 69.5879 39.5C69.5879 38.2218 68.5516 37.1855 67.2734 37.1855H62.6445C61.3663 37.1855 60.3301 38.2218 60.3301 39.5Z" fill="#F59FAF"/>
<path d="M41.8145 38.5414V25.6133C41.8145 24.3351 40.7782 23.2988 39.5 23.2988C38.2218 23.2988 37.1855 24.3351 37.1855 25.6133V39.5C37.1855 40.1138 37.4295 40.7024 37.8635 41.1366L51.7502 55.0233C52.654 55.9271 54.1195 55.9272 55.0233 55.0233C55.9272 54.1195 55.9272 52.6541 55.0233 51.7502L41.8145 38.5414Z" fill="#F59FAF"/>
</svg>
