<svg width="79" height="79" viewBox="0 0 79 79" fill="none" xmlns="http://www.w3.org/2000/svg">
<path d="M38.4947 20.0063C38.7331 20.3213 39.105 20.5064 39.5 20.5064C39.895 20.5064 40.267 20.3213 40.5054 20.0063L48.3919 9.58203C49.1828 8.53704 49.6006 7.29069 49.6006 5.97795C49.6008 2.6818 46.9192 0 43.6227 0C42.0669 0 40.5963 0.606956 39.5 1.65127C38.4038 0.606956 36.9332 0 35.3774 0C32.0811 0 29.3995 2.6818 29.3995 5.97795C29.3995 7.29086 29.8173 8.53721 30.608 9.58203L38.4947 20.0063ZM35.3774 2.52128C36.6302 2.52128 37.7878 3.20286 38.3988 4.30012C38.6211 4.69983 39.0427 4.94759 39.5002 4.94759C39.9577 4.94759 40.3791 4.69983 40.6017 4.30012C41.2125 3.20286 42.3699 2.52128 43.6227 2.52128C45.5288 2.52128 47.0793 4.07203 47.0793 5.97795C47.0793 6.73719 46.838 7.45727 46.3813 8.06086L39.5 17.1563L32.6186 8.06069C32.162 7.45727 31.9208 6.73702 31.9208 5.97778C31.9206 4.07203 33.4713 2.52128 35.3774 2.52128Z" fill="#F59FAF"/>
<path d="M28.5725 38.2395C33.7848 38.2395 38.0252 33.9989 38.0252 28.7868C38.0252 23.5746 33.7846 19.334 28.5725 19.334C23.3603 19.334 19.1197 23.5744 19.1197 28.7868C19.1197 33.9991 23.3603 38.2395 28.5725 38.2395ZM28.5725 21.8553C32.3946 21.8553 35.504 24.9647 35.504 28.7868C35.504 32.6088 32.3947 35.7183 28.5725 35.7183C24.7502 35.7183 21.641 32.6087 21.641 28.7868C21.641 24.9648 24.7504 21.8553 28.5725 21.8553Z" fill="#F59FAF"/>
<path d="M28.5629 33.1973C30.0286 33.1973 31.3951 32.4705 32.2181 31.2529C32.608 30.676 32.4566 29.8924 31.8797 29.5024C31.3032 29.1126 30.5194 29.2641 30.1295 29.8408C29.7758 30.3639 29.1902 30.676 28.5629 30.676C27.9439 30.676 27.3624 30.3701 27.008 29.8578C26.6119 29.2853 25.8268 29.1422 25.2538 29.5386C24.6815 29.9347 24.5384 30.72 24.9348 31.2925C25.7603 32.4853 27.1164 33.1973 28.5629 33.1973Z" fill="#F59FAF"/>
<path d="M30.0473 48.1204C30.0473 53.3327 34.2879 57.5732 39.5001 57.5732C44.7122 57.5732 48.9529 53.3326 48.9529 48.1204C48.9529 42.9083 44.7124 38.6675 39.5001 38.6675C34.2878 38.6675 30.0473 42.9081 30.0473 48.1204ZM46.4316 48.1204C46.4316 51.9425 43.3222 55.0519 39.5001 55.0519C35.678 55.0519 32.5686 51.9423 32.5686 48.1204C32.5686 44.2985 35.678 41.1889 39.5001 41.1889C43.3222 41.1889 46.4316 44.2983 46.4316 48.1204Z" fill="#F59FAF"/>
<path d="M37.9353 49.1913C37.5393 48.6188 36.7542 48.4756 36.1812 48.8721C35.6089 49.2683 35.4658 50.0536 35.8622 50.6261C36.6876 51.8188 38.0437 52.5308 39.4903 52.5308C40.956 52.5308 42.3225 51.804 43.1455 50.5864C43.5354 50.0095 43.384 49.2259 42.8071 48.836C42.2306 48.446 41.4468 48.5978 41.0568 49.1743C40.7032 49.6974 40.1176 50.0095 39.4903 50.0095C38.8714 50.0095 38.29 49.7036 37.9353 49.1913Z" fill="#F59FAF"/>
<path d="M17.6452 57.573C22.8575 57.573 27.0979 53.3324 27.0979 48.1203C27.0979 42.9081 22.8573 38.6675 17.6452 38.6675C12.433 38.6675 8.19238 42.9081 8.19238 48.1203C8.19238 53.3324 12.4328 57.573 17.6452 57.573ZM17.6452 41.1886C21.4672 41.1886 24.5767 44.2982 24.5767 48.1201C24.5767 51.942 21.4672 55.0516 17.6452 55.0516C13.8231 55.0516 10.7137 51.942 10.7137 48.1201C10.7137 44.2982 13.8229 41.1886 17.6452 41.1886Z" fill="#F59FAF"/>
<path d="M17.6451 52.5308C19.1108 52.5308 20.4773 51.804 21.3002 50.5864C21.6902 50.0095 21.5388 49.2259 20.9619 48.836C20.3854 48.446 19.6016 48.5978 19.2116 49.1743C18.858 49.6974 18.2724 50.0095 17.6451 50.0095C17.026 50.0095 16.4446 49.7036 16.0901 49.1913C15.6941 48.6188 14.9091 48.4756 14.336 48.8721C13.7636 49.2683 13.6206 50.0536 14.0169 50.6261C14.8424 51.8188 16.1985 52.5308 17.6451 52.5308Z" fill="#F59FAF"/>
<path d="M25.3787 63.2374C25.6585 62.6 25.3688 61.8563 24.7312 61.5762C22.4925 60.5931 20.1084 60.0947 17.6449 60.0947C7.91563 60.0946 0 68.0102 0 77.7396C0 78.4358 0.564262 79.0003 1.26064 79.0003C1.95702 79.0003 2.52128 78.4358 2.52128 77.7396C2.52128 69.4004 9.3057 62.6158 17.6451 62.6158C19.7572 62.6158 21.8005 63.0428 23.7177 63.8847C24.3554 64.1644 25.0988 63.8748 25.3787 63.2374Z" fill="#F59FAF"/>
<path d="M51.9022 48.1203C51.9022 53.3326 56.1428 57.573 61.3549 57.573C66.5671 57.573 70.8077 53.3324 70.8077 48.1203C70.8077 42.9081 66.5671 38.6675 61.3549 38.6675C56.1428 38.6675 51.9022 42.9079 51.9022 48.1203ZM61.3549 41.1886C65.177 41.1886 68.2864 44.2982 68.2864 48.1201C68.2864 51.942 65.177 55.0516 61.3549 55.0516C57.5328 55.0516 54.4234 51.942 54.4234 48.1201C54.4234 44.2982 57.5328 41.1886 61.3549 41.1886Z" fill="#F59FAF"/>
<path d="M61.3455 52.5308C62.8112 52.5308 64.1777 51.804 65.0007 50.5864C65.3906 50.0095 65.2392 49.2259 64.6623 48.836C64.086 48.446 63.3018 48.5978 62.9121 49.1743C62.5584 49.6974 61.9728 50.0095 61.3455 50.0095C60.7264 50.0095 60.145 49.7036 59.7905 49.1913C59.3945 48.6188 58.6094 48.4756 58.0364 48.8721C57.4641 49.2683 57.321 50.0536 57.7174 50.6261C58.5429 51.8188 59.899 52.5308 61.3455 52.5308Z" fill="#F59FAF"/>
<path d="M61.3549 60.0947C58.8916 60.0947 56.5075 60.5931 54.2689 61.5762C53.6314 61.8563 53.3416 62.5999 53.6214 63.2374C53.9013 63.875 54.6449 64.1646 55.2826 63.8849C57.1996 63.0429 59.2427 62.6162 61.3549 62.6162C69.6941 62.6162 76.4787 69.4006 76.4787 77.74C76.4787 78.4362 77.0429 79.0006 77.7393 79.0006C78.4357 79.0006 78.9999 78.4362 78.9999 77.74C78.9999 68.0104 71.0845 60.0947 61.3549 60.0947Z" fill="#F59FAF"/>
<path d="M39.4999 60.0947C29.7703 60.0947 21.8549 68.0102 21.8549 77.7396C21.8549 78.4358 22.4191 79.0003 23.1155 79.0003C23.8119 79.0003 24.3761 78.4358 24.3761 77.7396C24.3761 69.4004 31.1606 62.616 39.4999 62.616C47.8393 62.616 54.6237 69.4004 54.6237 77.7396C54.6237 78.4358 55.188 79.0003 55.8844 79.0003C56.5807 79.0003 57.145 78.4358 57.145 77.7396C57.145 68.0102 49.2295 60.0947 39.4999 60.0947Z" fill="#F59FAF"/>
<path d="M40.9746 28.7868C40.9746 33.9991 45.2152 38.2395 50.4274 38.2395C55.6395 38.2395 59.8802 33.9989 59.8802 28.7868C59.8802 23.5746 55.6395 19.334 50.4274 19.334C45.2152 19.334 40.9746 23.5744 40.9746 28.7868ZM50.4276 21.8553C54.2496 21.8553 57.359 24.9647 57.359 28.7868C57.359 32.6088 54.2496 35.7183 50.4276 35.7183C46.6055 35.7183 43.4961 32.6087 43.4961 28.7868C43.4961 24.9648 46.6053 21.8553 50.4276 21.8553Z" fill="#F59FAF"/>
<path d="M50.4179 33.1973C51.8836 33.1973 53.2501 32.4705 54.0731 31.2529C54.463 30.676 54.3116 29.8924 53.7347 29.5024C53.1582 29.1126 52.3744 29.2641 51.9844 29.8408C51.6308 30.3639 51.0452 30.676 50.4179 30.676C49.7988 30.676 49.2174 30.3701 48.8629 29.8578C48.4668 29.2853 47.6818 29.1422 47.1088 29.5386C46.5365 29.9347 46.3934 30.72 46.7898 31.2925C47.6152 32.4853 48.9715 33.1973 50.4179 33.1973Z" fill="#F59FAF"/>
</svg>
