<svg width="487" height="628" viewBox="0 0 487 628" fill="none" xmlns="http://www.w3.org/2000/svg">
<path d="M377.545 473.826C375.747 473.826 374.271 472.36 374.271 470.55C374.271 468.75 375.736 467.273 377.545 467.273C379.343 467.273 380.82 468.739 380.82 470.55C380.82 472.349 379.354 473.826 377.545 473.826Z" stroke="#8569D7"/>
<path d="M354.144 470.55C354.144 472.36 352.678 473.826 350.869 473.826C349.061 473.826 347.595 472.36 347.595 470.55C347.595 468.74 349.061 467.273 350.869 467.273C352.678 467.273 354.144 468.74 354.144 470.55Z" stroke="#8569D7"/>
<path d="M407.482 470.55C407.482 472.36 406.015 473.826 404.207 473.826C402.398 473.826 400.932 472.36 400.932 470.55C400.932 468.74 402.398 467.273 404.207 467.273C406.015 467.273 407.482 468.74 407.482 470.55Z" stroke="#8569D7"/>
<path d="M460.833 470.55C460.833 472.36 459.366 473.826 457.558 473.826C455.75 473.826 454.283 472.36 454.283 470.55C454.283 468.74 455.75 467.273 457.558 467.273C459.366 467.273 460.833 468.74 460.833 470.55Z" stroke="#8569D7"/>
<path d="M434.157 470.55C434.157 472.36 432.691 473.826 430.883 473.826C429.074 473.826 427.608 472.36 427.608 470.55C427.608 468.74 429.074 467.273 430.883 467.273C432.691 467.273 434.157 468.74 434.157 470.55Z" stroke="#8569D7"/>
<path d="M380.66 445.205C380.66 447.014 379.193 448.481 377.385 448.481C375.577 448.481 374.11 447.014 374.11 445.205C374.11 443.395 375.577 441.928 377.385 441.928C379.193 441.928 380.66 443.395 380.66 445.205Z" stroke="#8569D7"/>
<path d="M407.322 445.205C407.322 447.014 405.856 448.481 404.047 448.481C402.239 448.481 400.772 447.014 400.772 445.205C400.772 443.395 402.239 441.928 404.047 441.928C405.856 441.928 407.322 443.395 407.322 445.205Z" stroke="#8569D7"/>
<path d="M353.984 445.205C353.984 447.014 352.518 448.481 350.71 448.481C348.901 448.481 347.435 447.014 347.435 445.205C347.435 443.395 348.901 441.928 350.71 441.928C352.518 441.928 353.984 443.395 353.984 445.205Z" stroke="#8569D7"/>
<path d="M460.673 445.205C460.673 447.014 459.207 448.481 457.399 448.481C455.59 448.481 454.124 447.014 454.124 445.205C454.124 443.395 455.59 441.928 457.399 441.928C459.207 441.928 460.673 443.395 460.673 445.205Z" stroke="#8569D7"/>
<path d="M430.723 448.481C428.925 448.481 427.448 447.015 427.448 445.205C427.448 443.393 428.913 441.928 430.723 441.928C432.52 441.928 433.998 443.406 433.998 445.205C433.998 447.004 432.532 448.481 430.723 448.481Z" stroke="#8569D7"/>
<path d="M460.514 419.848C460.514 421.657 459.047 423.124 457.239 423.124C455.431 423.124 453.964 421.657 453.964 419.848C453.964 418.038 455.431 416.571 457.239 416.571C459.047 416.571 460.514 418.038 460.514 419.848Z" stroke="#8569D7"/>
<path d="M350.551 423.124C348.752 423.124 347.276 421.658 347.276 419.848C347.276 418.036 348.74 416.571 350.551 416.571C352.349 416.571 353.825 418.037 353.825 419.848C353.825 421.647 352.36 423.124 350.551 423.124Z" stroke="#8569D7"/>
<path d="M433.838 419.848C433.838 421.657 432.372 423.124 430.564 423.124C428.755 423.124 427.289 421.657 427.289 419.848C427.289 418.038 428.755 416.571 430.564 416.571C432.372 416.571 433.838 418.038 433.838 419.848Z" stroke="#8569D7"/>
<path d="M407.163 419.848C407.163 421.657 405.696 423.124 403.888 423.124C402.08 423.124 400.613 421.657 400.613 419.848C400.613 418.038 402.08 416.571 403.888 416.571C405.696 416.571 407.163 418.038 407.163 419.848Z" stroke="#8569D7"/>
<path d="M380.501 419.848C380.501 421.657 379.034 423.124 377.226 423.124C375.418 423.124 373.951 421.657 373.951 419.848C373.951 418.038 375.418 416.571 377.226 416.571C379.034 416.571 380.501 418.038 380.501 419.848Z" stroke="#8569D7"/>
<path d="M380.341 394.503C380.341 396.313 378.875 397.779 377.066 397.779C375.258 397.779 373.792 396.313 373.792 394.503C373.792 392.693 375.258 391.227 377.066 391.227C378.875 391.227 380.341 392.693 380.341 394.503Z" stroke="#8569D7"/>
<path d="M353.666 394.504C353.666 396.314 352.199 397.78 350.391 397.78C348.583 397.78 347.116 396.314 347.116 394.504C347.116 392.694 348.583 391.228 350.391 391.228C352.199 391.228 353.666 392.694 353.666 394.504Z" stroke="#8569D7"/>
<path d="M433.679 394.503C433.679 396.313 432.212 397.779 430.404 397.779C428.596 397.779 427.129 396.313 427.129 394.503C427.129 392.693 428.596 391.227 430.404 391.227C432.212 391.227 433.679 392.693 433.679 394.503Z" stroke="#8569D7"/>
<path d="M407.003 394.503C407.003 396.313 405.537 397.779 403.728 397.779C401.92 397.779 400.454 396.313 400.454 394.503C400.454 392.693 401.92 391.227 403.728 391.227C405.537 391.227 407.003 392.693 407.003 394.503Z" stroke="#8569D7"/>
<path d="M460.355 394.503C460.355 396.313 458.888 397.779 457.08 397.779C455.272 397.779 453.805 396.313 453.805 394.503C453.805 392.693 455.272 391.227 457.08 391.227C458.888 391.227 460.355 392.693 460.355 394.503Z" stroke="#8569D7"/>
<path d="M149.974 548.85C150.955 549.832 152.548 549.832 153.529 548.85L166.964 535.407C167.945 534.426 167.945 532.835 166.964 531.854V531.854C165.983 530.871 164.39 530.871 163.409 531.854L149.974 545.296C148.993 546.277 148.993 547.868 149.974 548.85V548.85Z" fill="#F8DC71"/>
<path d="M166.892 548.779C167.872 547.798 167.872 546.207 166.892 545.226L153.446 531.774C152.465 530.792 150.874 530.792 149.892 531.774V531.774C148.912 532.755 148.912 534.345 149.892 535.326L163.337 548.779C164.319 549.76 165.91 549.76 166.892 548.779V548.779Z" fill="#F8DC71"/>
<ellipse cx="29.534" cy="486.796" rx="13.534" ry="13.54" fill="#6FD2DB"/>
<ellipse cx="266.057" cy="586.735" rx="20.6232" ry="20.6325" fill="#8569D7"/>
<path d="M323.856 534.858C323.494 535.759 323.979 536.777 324.907 537.064V537.064C325.732 537.319 326.616 536.898 326.938 536.096L331.004 525.974C332.094 523.261 330.634 520.195 327.841 519.333L317.423 516.114C316.597 515.859 315.713 516.28 315.391 517.082V517.082C315.029 517.984 315.514 519.002 316.442 519.289L323.414 521.443C326.207 522.305 327.666 525.371 326.576 528.084L323.856 534.858Z" fill="#F59FAF"/>
<path d="M357.559 61.9638C358.234 62.6391 359.329 62.6391 360.004 61.9638L369.241 52.7223C369.915 52.0475 369.915 50.9537 369.241 50.2789V50.2789C368.566 49.6036 367.471 49.6036 366.796 50.2789L357.559 59.5204C356.885 60.1952 356.885 61.289 357.559 61.9638V61.9638Z" fill="#6FD2DB"/>
<path d="M369.191 61.9149C369.865 61.2404 369.865 60.1473 369.191 59.4728L359.947 50.2243C359.272 49.5493 358.178 49.5493 357.504 50.2243V50.2243C356.83 50.8988 356.83 51.992 357.504 52.6665L366.747 61.9149C367.422 62.5899 368.516 62.5899 369.191 61.9149V61.9149Z" fill="#6FD2DB"/>
<path d="M265.289 55.2937C265.62 54.4343 265.193 53.4627 264.311 53.1972C262.068 52.5217 259.728 52.2058 257.378 52.2646C254.473 52.3374 251.61 52.982 248.953 54.1618C246.296 55.3415 243.898 57.0332 241.894 59.1403C240.274 60.8441 238.939 62.7926 237.934 64.9107C237.54 65.7425 237.974 66.7106 238.833 67.0416V67.0416C239.692 67.3726 240.65 66.9404 241.055 66.114C241.895 64.4022 242.992 62.8251 244.31 61.4387C246.011 59.6489 248.048 58.212 250.305 57.21C252.562 56.2079 254.994 55.6603 257.462 55.5985C259.373 55.5506 261.278 55.7949 263.11 56.3199C263.995 56.5736 264.958 56.1531 265.289 55.2937V55.2937Z" fill="#F8DC71"/>
<ellipse cx="453.277" cy="37.3962" rx="17.7231" ry="16.7639" fill="#8569D7"/>
<ellipse cx="141.673" cy="45.7779" rx="8.37818" ry="8.38193" fill="#F59FAF"/>
</svg>
