<svg width="36" height="36" viewBox="0 0 36 36" fill="none" xmlns="http://www.w3.org/2000/svg">
<path d="M31.2908 0H4.15365C1.86333 0 0 1.86333 0 4.15365V31.2908C0 33.5811 1.86333 35.4444 4.15365 35.4444H31.2908C33.5811 35.4444 35.4444 33.5811 35.4444 31.2908V4.15365C35.4444 1.86333 33.5811 0 31.2908 0ZM32.6753 31.2908C32.6753 32.0542 32.0542 32.6753 31.2908 32.6753H23.3989V21.3913H27.6764L28.3832 17.0992H23.3989V14.1224C23.3989 12.9473 24.3006 12.0456 25.4757 12.0456H28.314V7.75347H25.4757C21.9504 7.75347 19.1083 10.6091 19.1083 14.1344V17.0992H14.9531V21.3913H19.1083V32.6753H4.15365C3.39021 32.6753 2.7691 32.0542 2.7691 31.2908V4.15365C2.7691 3.39021 3.39021 2.7691 4.15365 2.7691H31.2908C32.0542 2.7691 32.6753 3.39021 32.6753 4.15365V31.2908Z" fill="#F8DC71"/>
</svg>
