<svg width="37" height="37" viewBox="0 0 37 37" fill="none" xmlns="http://www.w3.org/2000/svg">
<path d="M36.8989 10.8781C36.8122 8.91218 36.4943 7.5606 36.0389 6.38944C35.5691 5.14628 34.8463 4.03328 33.8993 3.10804C32.9741 2.1684 31.8537 1.43826 30.625 0.975779C29.447 0.520359 28.1025 0.20244 26.1365 0.115761C24.1559 0.0217404 23.5271 0 18.5037 0C13.4802 0 12.8514 0.0217404 10.8781 0.10842C8.91218 0.195099 7.5606 0.513301 6.38972 0.968439C5.14628 1.43826 4.03328 2.16106 3.10804 3.10804C2.1684 4.03328 1.43854 5.15362 0.97578 6.38238C0.520359 7.5606 0.20244 8.90483 0.115761 10.8708C0.0217404 12.8514 0 13.4802 0 18.5037C0 23.5271 0.0217404 24.1559 0.10842 26.1292C0.195099 28.0952 0.513301 29.4467 0.968721 30.6179C1.43854 31.8611 2.1684 32.9741 3.10804 33.8993C4.03328 34.8389 5.15362 35.5691 6.38238 36.0316C7.5606 36.487 8.90484 36.8049 10.8711 36.8916C12.8441 36.9785 13.4732 37 18.4966 37C23.5201 37 24.1488 36.9785 26.1222 36.8916C28.0881 36.8049 29.4397 36.487 30.6106 36.0316C33.0972 35.0702 35.0631 33.1042 36.0245 30.6179C36.4796 29.4397 36.7978 28.0952 36.8845 26.1292C36.9712 24.1559 36.9929 23.5271 36.9929 18.5037C36.9929 13.4802 36.9856 12.8514 36.8989 10.8781ZM33.567 25.9846C33.4874 27.7916 33.1838 28.7674 32.9309 29.4179C32.3091 31.0298 31.0298 32.3091 29.4179 32.9309C28.7674 33.1838 27.7846 33.4874 25.9846 33.5667C24.0331 33.6537 23.4478 33.6751 18.511 33.6751C13.5742 33.6751 12.9816 33.6537 11.0371 33.5667C9.23009 33.4874 8.25432 33.1838 7.6038 32.9309C6.80166 32.6344 6.07152 32.1646 5.47888 31.5502C4.8645 30.9502 4.39468 30.2274 4.09822 29.4253C3.84524 28.7748 3.54172 27.7916 3.46238 25.992C3.37542 24.0404 3.35396 23.4548 3.35396 18.5181C3.35396 13.5813 3.37542 12.9887 3.46238 11.0444C3.54172 9.23744 3.84524 8.26166 4.09822 7.61114C4.39468 6.80872 4.8645 6.07886 5.48622 5.48594C6.08592 4.87156 6.80872 4.40174 7.61114 4.10556C8.26166 3.85258 9.24478 3.54906 11.0444 3.46944C12.996 3.38276 13.5816 3.36102 18.5181 3.36102C23.4622 3.36102 24.0475 3.38276 25.992 3.46944C27.799 3.54906 28.7748 3.85258 29.4253 4.10556C30.2274 4.40174 30.9576 4.87156 31.5502 5.48594C32.1646 6.08592 32.6344 6.80872 32.9309 7.61114C33.1838 8.26166 33.4874 9.24449 33.567 11.0444C33.6537 12.996 33.6754 13.5813 33.6754 18.5181C33.6754 23.4548 33.6537 24.0331 33.567 25.9846Z" fill="#F8DC71"/>
<path d="M18.5037 8.99902C13.2563 8.99902 8.99888 13.2562 8.99888 18.5038C8.99888 23.7515 13.2563 28.0087 18.5037 28.0087C23.7513 28.0087 28.0085 23.7515 28.0085 18.5038C28.0085 13.2562 23.7513 8.99902 18.5037 8.99902ZM18.5037 24.6694C15.0995 24.6694 12.3382 21.9083 12.3382 18.5038C12.3382 15.0993 15.0995 12.3383 18.5037 12.3383C21.9082 12.3383 24.6692 15.0993 24.6692 18.5038C24.6692 21.9083 21.9082 24.6694 18.5037 24.6694Z" fill="#F8DC71"/>
<path d="M30.6035 8.62275C30.6035 9.84812 29.6099 10.8417 28.3843 10.8417C27.1589 10.8417 26.1654 9.84812 26.1654 8.62275C26.1654 7.39709 27.1589 6.40381 28.3843 6.40381C29.6099 6.40381 30.6035 7.39709 30.6035 8.62275Z" fill="#F8DC71"/>
</svg>
