<svg width="341" height="70" viewBox="0 0 341 70" fill="none" xmlns="http://www.w3.org/2000/svg">
<path d="M70 35C70 54.33 54.33 70 35 70C15.67 70 0 54.33 0 35C0 15.67 15.67 0 35 0C54.33 0 70 15.67 70 35Z" fill="#2A2850"/>
<path d="M40.6925 56.4142C38.6934 56.4142 36.8313 56.024 35.1061 55.2436C33.3947 54.4631 31.8954 53.3883 30.6083 52.0191C29.335 50.6362 28.3423 49.0411 27.6303 47.2338C26.9184 45.4265 26.5624 43.5027 26.5624 41.4626C26.5624 39.2719 26.9526 37.2729 27.733 35.4656C28.5135 33.6582 29.5746 32.0974 30.9164 30.7829C32.2582 29.4548 33.778 28.4348 35.4758 27.7228C37.1873 26.9971 38.9673 26.6343 40.8157 26.6343C42.8421 26.6343 44.8274 27.1066 46.7717 28.0514C48.7159 28.9961 50.4548 30.4954 51.9883 32.5492L46.936 35.2602C46.0597 34.247 45.0807 33.4939 43.9991 33.001C42.9311 32.5081 41.8426 32.2617 40.7335 32.2617C39.6245 32.2617 38.5565 32.4876 37.5296 32.9394C36.5164 33.3912 35.6127 34.0348 34.8186 34.87C34.0245 35.7052 33.3947 36.691 32.9291 37.8274C32.4636 38.9639 32.2308 40.2167 32.2308 41.5859C32.2308 42.8592 32.4499 44.0504 32.8881 45.1595C33.3399 46.2685 33.956 47.2406 34.7365 48.0758C35.5169 48.911 36.4206 49.5683 37.4475 50.0475C38.488 50.513 39.5971 50.7458 40.7746 50.7458C41.5003 50.7458 42.2123 50.6431 42.9105 50.4377C43.6225 50.2186 44.3003 49.9037 44.9438 49.493C45.5873 49.0822 46.1761 48.5687 46.7101 47.9526C47.2577 47.3365 47.737 46.6245 48.1477 45.8167H43.691V40.8876H54.8225C54.9047 43.0098 54.5966 45.0088 53.8983 46.8846C53.2 48.7604 52.2005 50.4172 50.8998 51.8548C49.5991 53.2788 48.0792 54.3947 46.3404 55.2025C44.6015 56.0103 42.7189 56.4142 40.6925 56.4142Z" fill="#8569D7"/>
<path fill-rule="evenodd" clip-rule="evenodd" d="M34.7865 55.9445C32.9841 55.1226 31.4027 53.9889 30.0471 52.5468L30.0444 52.5439L30.0417 52.541C28.7018 51.0859 27.6593 49.4089 26.9137 47.5162C26.1645 45.6145 25.7921 43.5946 25.7921 41.4628C25.7921 39.1789 26.1993 37.0745 27.0259 35.1604C27.8437 33.2664 28.96 31.6217 30.3759 30.2343C31.7853 28.8396 33.3865 27.7641 35.1764 27.0133C36.9821 26.2479 38.8638 25.8643 40.8156 25.8643C42.9663 25.8643 45.0662 26.3666 47.1082 27.3588C49.1819 28.3665 51.0118 29.9544 52.6053 32.0886L53.1404 32.8051L46.7567 36.2305L46.3534 35.7642C45.5404 34.8241 44.6483 34.1434 43.6796 33.702L43.6779 33.7012L43.6762 33.7005C42.7032 33.2514 41.7243 33.032 40.7334 33.032C39.7331 33.032 38.7712 33.2349 37.8415 33.6437C36.9245 34.0529 36.1037 34.6362 35.3767 35.4008C34.6527 36.1623 34.0734 37.0657 33.6417 38.1195C33.2183 39.1532 33.0009 40.3055 33.0009 41.586C33.0009 42.7676 33.2036 43.8609 33.6027 44.8728C34.0207 45.8975 34.5866 46.7877 35.2991 47.5502C36.0114 48.3125 36.833 48.9102 37.7675 49.3471C38.7042 49.7652 39.7039 49.9758 40.7745 49.9758C41.4248 49.9758 42.062 49.8841 42.6884 49.7004C43.3309 49.5022 43.9441 49.2174 44.5293 48.8439C45.1062 48.4757 45.6393 48.0122 46.128 47.4484L46.1311 47.4447L46.1343 47.4411C46.3689 47.1772 46.5909 46.8927 46.8002 46.587H42.9207V40.1176H55.5634L55.592 40.8579C55.6779 43.0756 55.3559 45.1766 54.62 47.1535C53.8888 49.1177 52.8392 50.8593 51.4708 52.3717L51.4696 52.373L51.4683 52.3744C50.0993 53.8732 48.4966 55.0501 46.6648 55.9011C44.8185 56.7588 42.8243 57.1846 40.6924 57.1846C38.5901 57.1846 36.6191 56.7735 34.7886 55.9454L34.7865 55.9445ZM48.1476 45.8168C48.0117 46.084 47.8684 46.3408 47.7175 46.587C47.4123 47.0852 47.0765 47.5404 46.71 47.9528C46.176 48.5689 45.5872 49.0824 44.9437 49.4931C44.3002 49.9039 43.6224 50.2188 42.9105 50.4379C42.2122 50.6432 41.5002 50.7459 40.7745 50.7459C39.597 50.7459 38.488 50.5132 37.4474 50.0476C36.4205 49.5684 35.5168 48.9112 34.7364 48.076C33.9559 47.2408 33.3398 46.2687 32.888 45.1596C32.4498 44.0506 32.2307 42.8594 32.2307 41.586C32.2307 40.2168 32.4635 38.964 32.929 37.8276C33.3946 36.6912 34.0244 35.7053 34.8185 34.8701C35.6127 34.0349 36.5163 33.3914 37.5295 32.9396C38.5564 32.4877 39.6244 32.2618 40.7334 32.2618C41.8425 32.2618 42.931 32.5083 43.999 33.0012C45.0806 33.4941 46.0596 34.2471 46.9359 35.2603L51.9882 32.5493C51.8304 32.338 51.6704 32.1325 51.5082 31.9329C50.0946 30.1928 48.5157 28.8991 46.7716 28.0515C44.8273 27.1068 42.842 26.6344 40.8156 26.6344C38.9672 26.6344 37.1872 26.9973 35.4757 27.7229C33.7779 28.4349 32.2581 29.455 30.9163 30.7831C29.5745 32.0975 28.5134 33.6584 27.7329 35.4657C26.9525 37.2731 26.5623 39.2721 26.5623 41.4628C26.5623 43.5029 26.9183 45.4266 27.6303 47.2339C28.3422 49.0413 29.3349 50.6364 30.6083 52.0193C31.8953 53.3885 33.3946 54.4633 35.1061 55.2437C36.8312 56.0242 38.6933 56.4144 40.6924 56.4144C42.7188 56.4144 44.6014 56.0105 46.3403 55.2026C48.0792 54.3948 49.599 53.2789 50.8997 51.855C52.2004 50.4173 53.1999 48.7606 53.8982 46.8848C54.5965 45.009 54.9046 43.01 54.8224 40.8877H43.6909V45.8168H48.1476Z" fill="#8569D7"/>
<path d="M43.3661 56.5921C41.3421 56.5921 39.4568 56.197 37.71 55.4069C35.9771 54.6167 34.4591 53.5284 33.156 52.1421C31.8667 50.7419 30.8616 49.1269 30.1408 47.2969C29.4199 45.467 29.0594 43.5193 29.0594 41.4537C29.0594 39.2356 29.4545 37.2116 30.2447 35.3816C31.0349 33.5517 32.1093 31.9713 33.4679 30.6405C34.8265 29.2957 36.3653 28.2629 38.0843 27.5421C39.8172 26.8073 41.6194 26.4399 43.4909 26.4399C45.5427 26.4399 47.5528 26.9182 49.5214 27.8748C51.4899 28.8313 53.2505 30.3493 54.8032 32.4288L49.6877 35.1737C48.8005 34.1478 47.8093 33.3853 46.7141 32.8863C45.6328 32.3872 44.5306 32.1377 43.4077 32.1377C42.2848 32.1377 41.2035 32.3664 40.1638 32.8239C39.1379 33.2814 38.2229 33.9329 37.4189 34.7786C36.6148 35.6242 35.9771 36.6224 35.5058 37.773C35.0344 38.9236 34.7988 40.1921 34.7988 41.5784C34.7988 42.8677 35.0206 44.0738 35.4642 45.1967C35.9217 46.3196 36.5455 47.3039 37.3357 48.1495C38.1259 48.9952 39.0409 49.6606 40.0806 50.1458C41.1342 50.6172 42.2571 50.8528 43.4493 50.8528C44.1841 50.8528 44.905 50.7489 45.612 50.5409C46.3328 50.3191 47.0191 50.0002 47.6706 49.5844C48.3222 49.1685 48.9183 48.6486 49.459 48.0248C50.0135 47.4009 50.4987 46.68 50.9146 45.8621H46.4022V40.8714H57.6729C57.756 43.0202 57.4441 45.0442 56.7371 46.9434C56.0301 48.8427 55.0181 50.5201 53.7011 51.9757C52.3841 53.4175 50.8453 54.5473 49.0847 55.3653C47.3241 56.1832 45.4179 56.5921 43.3661 56.5921Z" fill="white"/>
<path fill-rule="evenodd" clip-rule="evenodd" d="M37.3915 56.1077L37.3905 56.1073C35.5667 55.2756 33.9666 54.1285 32.5948 52.6693L32.5921 52.6664L32.5894 52.6635C31.2337 51.1911 30.1787 49.4942 29.4242 47.5789C28.6662 45.6546 28.2893 43.6106 28.2893 41.4533C28.2893 39.1421 28.7014 37.0126 29.5377 35.076C30.3653 33.1594 31.4949 31.4952 32.9276 30.0913C34.3537 28.6801 35.9739 27.5918 37.7851 26.8321C39.6121 26.0576 41.516 25.6694 43.4909 25.6694C45.667 25.6694 47.7917 26.1777 49.858 27.1817C51.956 28.2012 53.8077 29.8078 55.4203 31.9677L55.9554 32.6843L49.5086 36.1435L49.1052 35.6772C48.2813 34.7245 47.377 34.0344 46.3947 33.5868L46.3931 33.586L46.3914 33.5852C45.405 33.13 44.4125 32.9075 43.4078 32.9075C42.3936 32.9075 41.4184 33.1133 40.4758 33.5277C39.5462 33.9425 38.714 34.5339 37.9771 35.3089C37.2431 36.0808 36.656 36.9966 36.2185 38.0646C35.7892 39.1125 35.569 40.2804 35.569 41.5781C35.569 42.7757 35.7744 43.8838 36.179 44.9096C36.6027 45.9482 37.1763 46.8505 37.8985 47.6234C38.6206 48.3962 39.4535 49.0021 40.4008 49.445C41.3506 49.8689 42.364 50.0823 43.4494 50.0823C44.1087 50.0823 44.7549 49.9894 45.3901 49.803C46.0414 49.6022 46.6631 49.3135 47.2563 48.9348C47.8412 48.5615 48.3816 48.0916 48.877 47.52L48.8802 47.5164L48.8834 47.5127C49.125 47.2409 49.3535 46.9475 49.5686 46.632H45.632V40.1009H58.4138L58.4425 40.8413C58.5293 43.0854 58.2036 45.2115 57.4589 47.2118C56.719 49.1995 55.6568 50.9618 54.2722 52.4921L54.271 52.4935L54.2697 52.4948C52.8844 54.0114 51.2628 55.2023 49.4092 56.0634C47.5412 56.9312 45.5235 57.362 43.3662 57.362C41.2389 57.362 39.2446 56.946 37.3926 56.1082L37.3915 56.1077ZM50.9146 45.8618C50.7788 46.1289 50.6356 46.3856 50.4851 46.632C50.1745 47.1401 49.8325 47.6043 49.459 48.0244C48.9183 48.6483 48.3222 49.1681 47.6707 49.584C47.0191 49.9999 46.3329 50.3188 45.612 50.5406C44.905 50.7485 44.1841 50.8525 43.4494 50.8525C42.2571 50.8525 41.1342 50.6168 40.0806 50.1455C39.0409 49.6603 38.1259 48.9948 37.3357 48.1492C36.5455 47.3035 35.9217 46.3193 35.4642 45.1964C35.0206 44.0734 34.7988 42.8674 34.7988 41.5781C34.7988 40.1918 35.0345 38.9233 35.5058 37.7727C35.9772 36.622 36.6149 35.6239 37.4189 34.7782C38.223 33.9326 39.1379 33.281 40.1638 32.8236C41.2035 32.3661 42.2849 32.1373 43.4078 32.1373C44.5307 32.1373 45.6328 32.3869 46.7141 32.8859C47.8093 33.385 48.8005 34.1475 49.6877 35.1733L54.8032 32.4285C54.6454 32.2171 54.4855 32.0116 54.3234 31.8119C52.8906 30.0463 51.2899 28.7338 49.5214 27.8744C47.5528 26.9179 45.5427 26.4396 43.4909 26.4396C41.6194 26.4396 39.8172 26.807 38.0843 27.5417C36.3653 28.2626 34.8265 29.2954 33.4679 30.6401C32.1094 31.971 31.035 33.5514 30.2448 35.3813C29.4546 37.2112 29.0595 39.2352 29.0595 41.4533C29.0595 43.5189 29.4199 45.4667 30.1408 47.2966C30.8617 49.1265 31.8668 50.7416 33.156 52.1418C34.4591 53.5281 35.9772 54.6163 37.71 55.4065C39.4568 56.1967 41.3422 56.5918 43.3662 56.5918C45.4179 56.5918 47.3241 56.1828 49.0847 55.3649C50.8453 54.547 52.3841 53.4172 53.7011 51.9754C55.0181 50.5198 56.0301 48.8423 56.7371 46.9431C57.4441 45.0439 57.7561 43.0199 57.6729 40.8711H46.4022V45.8618H50.9146Z" fill="#8569D7"/>
<path d="M47.3656 37.2251L55.8803 32.7324L49.2054 35.7275L48.3925 34.9146L46.1248 35.4708C46.7409 36.0527 47.2087 36.8828 47.3656 37.2251Z" fill="#8569D7"/>
<path fill-rule="evenodd" clip-rule="evenodd" d="M54.673 33.321L49.196 35.7786L48.3792 34.9618L46.2103 35.4938C46.7809 36.0544 47.2162 36.8112 47.3853 37.1663L54.673 33.321ZM49.2148 35.6764L55.8627 32.6934L55.9002 32.7702L47.3455 37.284L47.3266 37.2429C47.171 36.9034 46.706 36.0787 46.0953 35.5019L46.0382 35.4479L48.4056 34.8673L49.2148 35.6764Z" fill="#8569D7"/>
<path d="M22.6642 43.5846C21.0283 43.5846 19.4618 43.3282 17.9646 42.8152C16.4812 42.3023 15.1781 41.5606 14.0552 40.5902C12.9462 39.6198 12.149 38.4691 11.6638 37.1383L17.0496 35.142C17.216 35.6133 17.5626 36.057 18.0894 36.4729C18.6162 36.8749 19.2746 37.2076 20.0648 37.471C20.855 37.7205 21.7215 37.8453 22.6642 37.8453C23.5653 37.8453 24.4109 37.7136 25.2011 37.4502C26.0052 37.1729 26.6498 36.7917 27.135 36.3065C27.6341 35.8213 27.8836 35.2529 27.8836 34.6013C27.8836 33.9498 27.6272 33.4091 27.1142 32.9794C26.6013 32.5496 25.9428 32.21 25.1387 31.9604C24.3347 31.697 23.5098 31.496 22.6642 31.3574C20.5708 31.0524 18.6924 30.5603 17.0288 29.881C15.3791 29.1878 14.076 28.2382 13.1194 27.0321C12.1629 25.8121 11.6846 24.2664 11.6846 22.3949C11.6846 20.5927 12.1906 19.0192 13.2026 17.6745C14.2285 16.3298 15.5732 15.2831 17.2368 14.5345C18.9142 13.7859 20.7233 13.4116 22.6642 13.4116C24.2723 13.4116 25.825 13.6681 27.3222 14.181C28.8194 14.694 30.1225 15.4356 31.2316 16.406C32.3545 17.3765 33.1585 18.541 33.6437 19.8995L28.2579 21.8542C28.0916 21.3829 27.745 20.9462 27.2182 20.5442C26.6914 20.1421 26.0329 19.8164 25.2427 19.5668C24.4525 19.3173 23.593 19.1925 22.6642 19.1925C21.7769 19.1787 20.9313 19.3104 20.1272 19.5876C19.337 19.8649 18.6855 20.2461 18.1725 20.7313C17.6735 21.2165 17.4239 21.7711 17.4239 22.3949C17.4239 23.2128 17.6596 23.8297 18.1309 24.2456C18.6162 24.6615 19.2539 24.9596 20.0441 25.1398C20.8342 25.32 21.7076 25.4794 22.6642 25.6181C24.6327 25.9092 26.4488 26.4291 28.1124 27.1777C29.7759 27.9124 31.1068 28.8967 32.1049 30.1305C33.1169 31.3504 33.6229 32.8407 33.6229 34.6013C33.6229 36.4035 33.1169 37.977 32.1049 39.3217C31.0929 40.6664 29.7551 41.7131 28.0916 42.4617C26.428 43.2103 24.6189 43.5846 22.6642 43.5846Z" fill="#8569D7"/>
<path fill-rule="evenodd" clip-rule="evenodd" d="M17.714 43.5436L17.7129 43.5433C16.1425 43.0002 14.7527 42.211 13.5516 41.1731L13.5498 41.1715L13.5481 41.17C12.3455 40.1177 11.4717 38.8599 10.9403 37.4022L10.6779 36.6825L17.5155 34.1481L17.7759 34.8858C17.8795 35.1793 18.1142 35.5103 18.5617 35.8646C19.0043 36.2013 19.5787 36.4967 20.3026 36.7386C21.0067 36.9602 21.7919 37.0753 22.6642 37.0753C23.4878 37.0753 24.2493 36.9553 24.9538 36.721C25.6713 36.4731 26.2059 36.1466 26.5904 35.7621L26.5943 35.7582L26.5982 35.7544C26.9594 35.4032 27.1135 35.0297 27.1135 34.6015C27.1135 34.1848 26.9633 33.8578 26.6196 33.5699C26.2023 33.2202 25.6413 32.9229 24.9105 32.6961L24.9047 32.6944L24.899 32.6925C24.1351 32.4422 23.351 32.2509 22.5463 32.1187C20.4045 31.8061 18.4664 31.3 16.7377 30.5941L16.7341 30.5927L16.7305 30.5912C14.9808 29.856 13.5654 28.8339 12.516 27.5108L12.5147 27.5092L12.5134 27.5075C11.4298 26.1255 10.9145 24.402 10.9145 22.395C10.9145 20.4384 11.4675 18.6995 12.5873 17.2116L12.5888 17.2095L12.5903 17.2075C13.6999 15.7531 15.1498 14.6293 16.9207 13.8323L16.9218 13.8319L16.9229 13.8314C18.7047 13.0362 20.6214 12.6416 22.6642 12.6416C24.3558 12.6416 25.9929 12.9117 27.5718 13.4526C29.156 13.9953 30.5477 14.7848 31.7372 15.8252C32.9566 16.8796 33.8381 18.154 34.3691 19.6407L34.6268 20.3623L27.7903 22.8434L27.5317 22.1107C27.429 21.8199 27.1967 21.4967 26.751 21.1566C26.3102 20.8202 25.7365 20.5306 25.0108 20.3014C24.3041 20.0782 23.5237 19.9628 22.6642 19.9628H22.6582L22.6522 19.9628C21.8512 19.9502 21.0955 20.0688 20.3802 20.3152C19.6766 20.5624 19.1259 20.891 18.7057 21.2873C18.3396 21.6447 18.1941 22.0056 18.1941 22.395C18.1941 23.0594 18.3796 23.4359 18.6366 23.6648C19.0046 23.9787 19.5179 24.23 20.2153 24.389C20.982 24.5639 21.8348 24.7198 22.7747 24.856L22.7758 24.8562L22.7769 24.8563C24.8083 25.1568 26.6927 25.6947 28.4259 26.4744C30.1824 27.2505 31.6159 28.3029 32.7008 29.6426C33.8382 31.0156 34.3931 32.6842 34.3931 34.6015C34.3931 36.5582 33.8401 38.2971 32.7203 39.785C31.6238 41.242 30.1793 42.3669 28.4076 43.1642C26.6377 43.9607 24.7199 44.3549 22.6642 44.3549C20.9463 44.3549 19.2952 44.0854 17.715 43.544L17.714 43.5436ZM32.1049 30.1306C31.1068 28.8968 29.776 27.9126 28.1124 27.1778C26.4488 26.4292 24.6327 25.9093 22.6642 25.6182C21.7076 25.4796 20.8343 25.3202 20.0441 25.1399C19.2539 24.9597 18.6162 24.6617 18.131 24.2458C17.6596 23.8299 17.4239 23.213 17.4239 22.395C17.4239 21.7712 17.6735 21.2167 18.1726 20.7315C18.6855 20.2463 19.3371 19.865 20.1272 19.5878C20.9313 19.3105 21.777 19.1788 22.6642 19.1927C23.593 19.1927 24.4525 19.3174 25.2427 19.567C26.0329 19.8165 26.6914 20.1423 27.2182 20.5443C27.7321 20.9365 28.0745 21.3617 28.2454 21.8198C28.2497 21.8313 28.2539 21.8428 28.2579 21.8544L33.6437 19.8997L33.6437 19.8997C33.6437 19.8996 33.6437 19.8996 33.6437 19.8995C33.6339 19.8722 33.624 19.8449 33.614 19.8177C33.5346 19.6024 33.4471 19.3919 33.3515 19.1865C32.8594 18.1291 32.1528 17.2023 31.2316 16.4062C30.1225 15.4358 28.8194 14.6941 27.3222 14.1812C25.825 13.6682 24.2723 13.4118 22.6642 13.4118C20.7234 13.4118 18.9142 13.7861 17.2368 14.5347C15.5732 15.2833 14.2285 16.33 13.2026 17.6747C12.1906 19.0194 11.6846 20.5928 11.6846 22.395C11.6846 24.2666 12.1629 25.8123 13.1195 27.0323C14.076 28.2383 15.3791 29.188 17.0288 29.8811C18.6924 30.5604 20.5709 31.0525 22.6642 31.3575C23.5098 31.4962 24.3347 31.6972 25.1388 31.9606C25.9428 32.2101 26.6013 32.5498 27.1142 32.9795C27.6272 33.4093 27.8836 33.9499 27.8836 34.6015C27.8836 35.2531 27.6341 35.8214 27.135 36.3067C26.6498 36.7919 26.0052 37.1731 25.2011 37.4504C24.4109 37.7138 23.5653 37.8455 22.6642 37.8455C21.7215 37.8455 20.8551 37.7207 20.0649 37.4712C19.2747 37.2078 18.6162 36.875 18.0894 36.473C17.5857 36.0754 17.2467 35.6524 17.0726 35.204C17.0646 35.1834 17.0569 35.1628 17.0496 35.1422L11.6638 37.1384C11.6742 37.1669 11.6847 37.1952 11.6954 37.2235C11.7758 37.4369 11.8643 37.6456 11.9609 37.8497C12.4507 38.8836 13.1488 39.7972 14.0552 40.5903C15.1781 41.5608 16.4813 42.3024 17.9646 42.8154C19.4618 43.3283 21.0283 43.5848 22.6642 43.5848C24.6189 43.5848 26.428 43.2105 28.0916 42.4619C29.7552 41.7133 31.0929 40.6666 32.1049 39.3219C33.117 37.9772 33.623 36.4037 33.623 34.6015C33.623 32.8409 33.117 31.3506 32.1049 30.1306Z" fill="#8569D7"/>
<path d="M28.9552 41.5398C27.2925 41.5398 25.7001 41.2791 24.1783 40.7577C22.6705 40.2363 21.3459 39.4825 20.2045 38.4961C19.0772 37.5097 18.267 36.3401 17.7738 34.9873L23.2483 32.9582C23.4174 33.4373 23.7696 33.8882 24.3051 34.311C24.8406 34.7196 25.5099 35.0578 26.3131 35.3255C27.1163 35.5792 27.997 35.706 28.9552 35.706C29.8712 35.706 30.7307 35.5721 31.5339 35.3044C32.3512 35.0226 33.0065 34.6351 33.4997 34.1419C34.007 33.6487 34.2606 33.0709 34.2606 32.4086C34.2606 31.7463 33.9999 31.1968 33.4785 30.76C32.9572 30.3231 32.2878 29.9779 31.4705 29.7242C30.6532 29.4565 29.8148 29.2522 28.9552 29.1113C26.8275 28.8013 24.9181 28.301 23.2271 27.6106C21.5503 26.906 20.2257 25.9407 19.2534 24.7148C18.2811 23.4748 17.7949 21.9036 17.7949 20.0013C17.7949 18.1694 18.3093 16.57 19.3379 15.2032C20.3807 13.8363 21.7475 12.7724 23.4385 12.0115C25.1435 11.2506 26.9825 10.8701 28.9552 10.8701C30.5898 10.8701 32.168 11.1308 33.6899 11.6522C35.2118 12.1736 36.5363 12.9274 37.6636 13.9138C38.805 14.9002 39.6223 16.0839 40.1155 17.4648L34.6411 19.4517C34.472 18.9726 34.1197 18.5287 33.5842 18.1201C33.0488 17.7114 32.3794 17.3803 31.5762 17.1266C30.773 16.873 29.8994 16.7462 28.9552 16.7462C28.0534 16.7321 27.1938 16.866 26.3765 17.1478C25.5733 17.4296 24.911 17.8171 24.3897 18.3103C23.8824 18.8035 23.6287 19.3672 23.6287 20.0013C23.6287 20.8327 23.8683 21.4597 24.3474 21.8825C24.8406 22.3052 25.4888 22.6082 26.292 22.7913C27.0952 22.9745 27.9829 23.1366 28.9552 23.2775C30.9562 23.5734 32.8022 24.1018 34.4931 24.8628C36.1841 25.6096 37.5368 26.6101 38.5514 27.8642C39.5801 29.1042 40.0944 30.619 40.0944 32.4086C40.0944 34.2405 39.5801 35.8399 38.5514 37.2067C37.5227 38.5736 36.1629 39.6375 34.472 40.3984C32.781 41.1593 30.9421 41.5398 28.9552 41.5398Z" fill="#F59FAF"/>
<path fill-rule="evenodd" clip-rule="evenodd" d="M23.9277 41.4861L23.9266 41.4858C22.3318 40.9343 20.9206 40.1329 19.701 39.0789L19.6992 39.0774L19.6974 39.0758C18.4766 38.0076 17.5897 36.7309 17.0502 35.2513L16.7878 34.5316L23.7142 31.9643L23.9745 32.702C24.0809 33.0032 24.3213 33.3415 24.7773 33.7026C25.2286 34.046 25.8139 34.3469 26.5508 34.5931C27.268 34.8188 28.0675 34.936 28.9553 34.936C29.7937 34.936 30.5692 34.8138 31.2866 34.5752C32.0174 34.3227 32.5626 33.9899 32.9551 33.5974L32.9589 33.5936L32.9628 33.5898C33.3323 33.2306 33.4904 32.8478 33.4904 32.4088C33.4904 31.9814 33.3361 31.6455 32.9839 31.3505C32.5582 30.9938 31.9863 30.6909 31.2423 30.46L31.2365 30.4582L31.2308 30.4563C30.4537 30.2017 29.6559 30.0071 28.8372 29.8725C26.661 29.555 24.692 29.0408 22.936 28.3237L22.9324 28.3223L22.9288 28.3208C21.1519 27.5742 19.7151 26.5365 18.65 25.1935L18.6486 25.1919L18.6473 25.1902C17.548 23.7881 17.0248 22.0392 17.0248 20.0014C17.0248 18.0151 17.5861 16.2503 18.7226 14.7402L18.7241 14.7382L18.7256 14.7362C19.8521 13.2596 21.3242 12.1186 23.1225 11.3093L23.1236 11.3088L23.1246 11.3084C24.934 10.5009 26.8806 10.1001 28.9553 10.1001C30.6734 10.1001 32.336 10.3744 33.9395 10.9237C35.5483 11.4749 36.9615 12.2766 38.1693 13.333C39.4072 14.4034 40.3019 15.6969 40.8408 17.206L41.0986 17.9275L34.1734 20.4409L33.9148 19.7082C33.8094 19.4096 33.5714 19.0792 33.117 18.7325C32.6675 18.3895 32.083 18.0945 31.3443 17.8612C30.6246 17.6339 29.8301 17.5165 28.9553 17.5165H28.9492L28.9432 17.5164C28.1276 17.5037 27.358 17.6244 26.6295 17.8754C25.9129 18.1271 25.3514 18.4621 24.9228 18.8663C24.5484 19.2318 24.3989 19.6017 24.3989 20.0014C24.3989 20.6793 24.5883 21.0659 24.8531 21.3017C25.229 21.6224 25.7528 21.8786 26.4633 22.0406C27.243 22.2184 28.1101 22.3769 29.0657 22.5154L29.0668 22.5156L29.0679 22.5158C31.1318 22.821 33.0461 23.3675 34.8067 24.1595C36.5905 24.9477 38.046 26.0163 39.1473 27.3763C40.3013 28.7694 40.8646 30.4625 40.8646 32.4088C40.8646 34.3951 40.3032 36.1599 39.1668 37.67C38.0536 39.1491 36.5871 40.2913 34.788 41.1009C32.9907 41.9097 31.0432 42.3101 28.9553 42.3101C27.2104 42.3101 25.5336 42.0363 23.9287 41.4865L23.9277 41.4861ZM38.5514 27.8644C37.5368 26.6102 36.1841 25.6097 34.4931 24.8629C32.8022 24.102 30.9562 23.5736 28.9553 23.2776C27.983 23.1367 27.0952 22.9747 26.292 22.7915C25.4888 22.6083 24.8406 22.3053 24.3474 21.8826C23.8683 21.4599 23.6287 20.8328 23.6287 20.0014C23.6287 19.3673 23.8824 18.8037 24.3897 18.3105C24.9111 17.8173 25.5733 17.4298 26.3765 17.1479C27.1938 16.8661 28.0534 16.7322 28.9553 16.7463C29.8994 16.7463 30.773 16.8732 31.5762 17.1268C32.3794 17.3804 33.0488 17.7116 33.5842 18.1202C34.1066 18.5189 34.4547 18.9511 34.6284 19.4168C34.6327 19.4285 34.637 19.4402 34.6411 19.4519L40.1155 17.465C40.1056 17.4371 40.0955 17.4092 40.0852 17.3815C40.006 17.1667 39.9189 16.9567 39.8238 16.7515C39.3235 15.672 38.6034 14.7261 37.6637 13.914C36.5364 12.9276 35.2118 12.1737 33.6899 11.6523C32.1681 11.131 30.5898 10.8703 28.9553 10.8703C26.9825 10.8703 25.1436 11.2507 23.4385 12.0117C21.7476 12.7726 20.3807 13.8365 19.338 15.2033C18.3093 16.5702 17.795 18.1696 17.795 20.0014C17.795 21.9037 18.2811 23.4749 19.2534 24.715C20.2257 25.9409 21.5503 26.9061 23.2271 27.6107C24.9181 28.3012 26.8275 28.8014 28.9553 29.1114C29.8148 29.2523 30.6532 29.4567 31.4705 29.7244C32.2878 29.978 32.9572 30.3233 33.4786 30.7601C33.9999 31.1969 34.2606 31.7465 34.2606 32.4088C34.2606 33.0711 34.007 33.6488 33.4997 34.142C33.0065 34.6352 32.3512 35.0227 31.534 35.3045C30.7308 35.5723 29.8712 35.7062 28.9553 35.7062C27.997 35.7062 27.1163 35.5793 26.3131 35.3257C25.5099 35.0579 24.8406 34.7198 24.3051 34.3111C23.7931 33.9069 23.4486 33.4769 23.2716 33.0212C23.2635 33.0003 23.2557 32.9793 23.2483 32.9583L17.7738 34.9875C17.7738 34.9875 17.7738 34.9876 17.7739 34.9876C17.7844 35.0164 17.795 35.0451 17.8058 35.0738C17.886 35.2868 17.9742 35.4951 18.0704 35.6989C18.5684 36.7546 19.2798 37.6871 20.2046 38.4962C21.346 39.4826 22.6705 40.2365 24.1783 40.7579C25.7002 41.2792 27.2925 41.5399 28.9553 41.5399C30.9421 41.5399 32.781 41.1595 34.472 40.3985C36.1629 39.6376 37.5227 38.5737 38.5514 37.2069C39.5801 35.84 40.0944 34.2407 40.0944 32.4088C40.0944 30.6192 39.5801 29.1044 38.5514 27.8644Z" fill="#F59FAF"/>
<path d="M112.842 47.22C111.654 47.22 110.503 47.0513 109.388 46.714C108.288 46.3767 107.415 45.9293 106.77 45.372L107.76 43.15C108.391 43.6487 109.161 44.0593 110.07 44.382C110.994 44.69 111.918 44.844 112.842 44.844C113.986 44.844 114.837 44.6607 115.394 44.294C115.966 43.9273 116.252 43.4433 116.252 42.842C116.252 42.402 116.091 42.0427 115.768 41.764C115.46 41.4707 115.064 41.2433 114.58 41.082C114.096 40.9207 113.436 40.7373 112.6 40.532C111.427 40.2533 110.473 39.9747 109.74 39.696C109.021 39.4173 108.398 38.9847 107.87 38.398C107.357 37.7967 107.1 36.99 107.1 35.978C107.1 35.1273 107.327 34.3573 107.782 33.668C108.251 32.964 108.948 32.4067 109.872 31.996C110.811 31.5853 111.955 31.38 113.304 31.38C114.243 31.38 115.167 31.4973 116.076 31.732C116.985 31.9667 117.77 32.304 118.43 32.744L117.528 34.966C116.853 34.57 116.149 34.2693 115.416 34.064C114.683 33.8587 113.971 33.756 113.282 33.756C112.153 33.756 111.309 33.9467 110.752 34.328C110.209 34.7093 109.938 35.2153 109.938 35.846C109.938 36.286 110.092 36.6453 110.4 36.924C110.723 37.2027 111.126 37.4227 111.61 37.584C112.094 37.7453 112.754 37.9287 113.59 38.134C114.734 38.398 115.673 38.6767 116.406 38.97C117.139 39.2487 117.763 39.6813 118.276 40.268C118.804 40.8547 119.068 41.6467 119.068 42.644C119.068 43.4947 118.833 44.2647 118.364 44.954C117.909 45.6433 117.213 46.1933 116.274 46.604C115.335 47.0147 114.191 47.22 112.842 47.22ZM137.15 31.6C138.485 31.6 139.643 31.82 140.626 32.26C141.623 32.7 142.386 33.3307 142.914 34.152C143.442 34.9733 143.706 35.9487 143.706 37.078C143.706 38.1927 143.442 39.168 142.914 40.004C142.386 40.8253 141.623 41.456 140.626 41.896C139.643 42.336 138.485 42.556 137.15 42.556H133.674V47H130.814V31.6H137.15ZM137.018 40.136C138.265 40.136 139.211 39.872 139.856 39.344C140.501 38.816 140.824 38.0607 140.824 37.078C140.824 36.0953 140.501 35.34 139.856 34.812C139.211 34.284 138.265 34.02 137.018 34.02H133.674V40.136H137.018ZM164.687 43.436H156.987L155.469 47H152.521L159.451 31.6H162.267L169.219 47H166.227L164.687 43.436ZM163.741 41.192L160.837 34.46L157.955 41.192H163.741ZM187 47.22C185.446 47.22 184.038 46.8827 182.776 46.208C181.53 45.5187 180.547 44.5727 179.828 43.37C179.124 42.1673 178.772 40.8107 178.772 39.3C178.772 37.7893 179.132 36.4327 179.85 35.23C180.569 34.0273 181.552 33.0887 182.798 32.414C184.06 31.7247 185.468 31.38 187.022 31.38C188.284 31.38 189.435 31.6 190.476 32.04C191.518 32.48 192.398 33.118 193.116 33.954L191.268 35.692C190.154 34.4893 188.782 33.888 187.154 33.888C186.098 33.888 185.152 34.1227 184.316 34.592C183.48 35.0467 182.828 35.6847 182.358 36.506C181.889 37.3273 181.654 38.2587 181.654 39.3C181.654 40.3413 181.889 41.2727 182.358 42.094C182.828 42.9153 183.48 43.5607 184.316 44.03C185.152 44.4847 186.098 44.712 187.154 44.712C188.782 44.712 190.154 44.1033 191.268 42.886L193.116 44.646C192.398 45.482 191.51 46.12 190.454 46.56C189.413 47 188.262 47.22 187 47.22ZM216.317 44.602V47H204.767V31.6H216.009V33.998H207.627V38.002H215.063V40.356H207.627V44.602H216.317ZM253.921 39.124H256.627V45.262C255.835 45.8927 254.911 46.3767 253.855 46.714C252.799 47.0513 251.714 47.22 250.599 47.22C249.03 47.22 247.614 46.8827 246.353 46.208C245.092 45.5187 244.102 44.5727 243.383 43.37C242.664 42.1673 242.305 40.8107 242.305 39.3C242.305 37.7893 242.664 36.4327 243.383 35.23C244.102 34.0273 245.092 33.0887 246.353 32.414C247.629 31.7247 249.059 31.38 250.643 31.38C251.934 31.38 253.107 31.5927 254.163 32.018C255.219 32.4433 256.106 33.0667 256.825 33.888L255.021 35.648C253.848 34.4747 252.432 33.888 250.775 33.888C249.69 33.888 248.722 34.1153 247.871 34.57C247.035 35.0247 246.375 35.6627 245.891 36.484C245.422 37.3053 245.187 38.244 245.187 39.3C245.187 40.3267 245.422 41.2507 245.891 42.072C246.375 42.8933 247.035 43.5387 247.871 44.008C248.722 44.4773 249.682 44.712 250.753 44.712C251.956 44.712 253.012 44.448 253.921 43.92V39.124ZM269.309 31.6H272.169V44.58H280.221V47H269.309V31.6ZM301.484 43.436L293.784 43.436L292.266 47H289.318L296.248 31.6H299.064L306.016 47H303.024L301.484 43.436ZM300.538 41.192L297.634 34.46L294.752 41.192H300.538ZM331.031 47L331.009 36.792L325.949 45.24H324.673L319.613 36.924V47H316.885V31.6H319.239L325.355 41.808L331.361 31.6H333.715L333.737 47H331.031Z" fill="#3D497C"/>
</svg>
