<svg width="341" height="70" viewBox="0 0 341 70" fill="none" xmlns="http://www.w3.org/2000/svg">
<path d="M70 35C70 54.33 54.33 70 35 70C15.67 70 0 54.33 0 35C0 15.67 15.67 0 35 0C54.33 0 70 15.67 70 35Z" fill="#2A2850"/>
<path d="M40.6925 56.4142C38.6934 56.4142 36.8313 56.0239 35.1061 55.2435C33.3947 54.4631 31.8954 53.3883 30.6083 52.0191C29.335 50.6362 28.3423 49.0411 27.6303 47.2337C26.9184 45.4264 26.5624 43.5027 26.5624 41.4626C26.5624 39.2719 26.9526 37.2728 27.733 35.4655C28.5135 33.6582 29.5746 32.0973 30.9164 30.7829C32.2582 29.4548 33.778 28.4347 35.4758 27.7227C37.1873 26.9971 38.9673 26.6342 40.8157 26.6342C42.8421 26.6342 44.8274 27.1066 46.7717 28.0513C48.7159 28.9961 50.4548 30.4953 51.9883 32.5491L46.936 35.2601C46.0597 34.2469 45.0807 33.4939 43.9991 33.001C42.9311 32.5081 41.8426 32.2616 40.7335 32.2616C39.6245 32.2616 38.5565 32.4875 37.5296 32.9393C36.5164 33.3912 35.6127 34.0347 34.8186 34.8699C34.0245 35.7051 33.3947 36.6909 32.9291 37.8274C32.4636 38.9638 32.2308 40.2166 32.2308 41.5858C32.2308 42.8592 32.4499 44.0504 32.8881 45.1594C33.3399 46.2684 33.956 47.2406 34.7365 48.0758C35.5169 48.911 36.4206 49.5682 37.4475 50.0474C38.488 50.5129 39.5971 50.7457 40.7746 50.7457C41.5003 50.7457 42.2123 50.643 42.9105 50.4376C43.6225 50.2186 44.3003 49.9037 44.9438 49.4929C45.5873 49.0821 46.1761 48.5687 46.7101 47.9526C47.2577 47.3364 47.737 46.6244 48.1477 45.8166H43.691V40.8875H54.8225C54.9047 43.0098 54.5966 45.0088 53.8983 46.8846C53.2 48.7604 52.2005 50.4171 50.8998 51.8548C49.5991 53.2787 48.0792 54.3946 46.3404 55.2024C44.6015 56.0103 42.7189 56.4142 40.6925 56.4142Z" fill="#8569D7"/>
<path fill-rule="evenodd" clip-rule="evenodd" d="M34.7865 55.9443C32.9841 55.1224 31.4027 53.9888 30.0471 52.5466L30.0444 52.5437L30.0417 52.5408C28.7018 51.0857 27.6593 49.4088 26.9137 47.516C26.1645 45.6143 25.7921 43.5944 25.7921 41.4626C25.7921 39.1788 26.1993 37.0743 27.0259 35.1602C27.8437 33.2663 28.96 31.6215 30.3759 30.2341C31.7853 28.8395 33.3865 27.764 35.1764 27.0131C36.9821 26.2477 38.8638 25.8641 40.8156 25.8641C42.9663 25.8641 45.0662 26.3664 47.1082 27.3586C49.1819 28.3663 51.0118 29.9542 52.6053 32.0884L53.1404 32.805L46.7567 36.2303L46.3534 35.764C45.5404 34.8239 44.6483 34.1433 43.6796 33.7018L43.6779 33.7011L43.6762 33.7003C42.7032 33.2512 41.7243 33.0318 40.7334 33.0318C39.7331 33.0318 38.7712 33.2347 37.8415 33.6435C36.9245 34.0527 36.1037 34.636 35.3767 35.4006C34.6527 36.1621 34.0734 37.0655 33.6417 38.1193C33.2183 39.153 33.0009 40.3053 33.0009 41.5858C33.0009 42.7675 33.2036 43.8607 33.6027 44.8726C34.0207 45.8973 34.5866 46.7875 35.2991 47.55C36.0114 48.3123 36.833 48.91 37.7675 49.3469C38.7042 49.765 39.7039 49.9756 40.7745 49.9756C41.4248 49.9756 42.062 49.8839 42.6884 49.7002C43.3309 49.5021 43.9441 49.2173 44.5293 48.8437C45.1062 48.4755 45.6393 48.012 46.128 47.4482L46.1311 47.4445L46.1343 47.4409C46.3689 47.1771 46.5909 46.8925 46.8002 46.5868H42.9207V40.1174H55.5634L55.592 40.8578C55.6779 43.0754 55.3559 45.1764 54.62 47.1533C53.8888 49.1176 52.8392 50.8591 51.4708 52.3715L51.4696 52.3729L51.4683 52.3742C50.0993 53.873 48.4966 55.0499 46.6648 55.9009C44.8185 56.7587 42.8243 57.1844 40.6924 57.1844C38.5901 57.1844 36.6191 56.7733 34.7886 55.9452L34.7865 55.9443ZM48.1476 45.8166C48.0117 46.0839 47.8684 46.3406 47.7175 46.5868C47.4123 47.085 47.0765 47.5403 46.71 47.9526C46.176 48.5687 45.5872 49.0822 44.9437 49.4929C44.3002 49.9037 43.6224 50.2186 42.9105 50.4377C42.2122 50.643 41.5002 50.7457 40.7745 50.7457C39.597 50.7457 38.488 50.513 37.4474 50.0474C36.4205 49.5682 35.5168 48.911 34.7364 48.0758C33.9559 47.2406 33.3398 46.2685 32.888 45.1594C32.4498 44.0504 32.2307 42.8592 32.2307 41.5858C32.2307 40.2166 32.4635 38.9638 32.929 37.8274C33.3946 36.691 34.0244 35.7052 34.8185 34.8699C35.6127 34.0347 36.5163 33.3912 37.5295 32.9394C38.5564 32.4875 39.6244 32.2616 40.7334 32.2616C41.8425 32.2616 42.931 32.5081 43.999 33.001C45.0806 33.4939 46.0596 34.247 46.9359 35.2602L51.9882 32.5492C51.8304 32.3378 51.6704 32.1323 51.5082 31.9327C50.0946 30.1926 48.5157 28.8989 46.7716 28.0514C44.8273 27.1066 42.842 26.6342 40.8156 26.6342C38.9672 26.6342 37.1872 26.9971 35.4757 27.7228C33.7779 28.4347 32.2581 29.4548 30.9163 30.7829C29.5745 32.0973 28.5134 33.6582 27.7329 35.4655C26.9525 37.2729 26.5623 39.2719 26.5623 41.4626C26.5623 43.5027 26.9183 45.4264 27.6303 47.2338C28.3422 49.0411 29.3349 50.6362 30.6083 52.0191C31.8953 53.3883 33.3946 54.4631 35.1061 55.2435C36.8312 56.024 38.6933 56.4142 40.6924 56.4142C42.7188 56.4142 44.6014 56.0103 46.3403 55.2025C48.0792 54.3946 49.599 53.2787 50.8997 51.8548C52.2004 50.4171 53.1999 48.7604 53.8982 46.8846C54.5965 45.0088 54.9046 43.0098 54.8224 40.8875H43.6909V45.8166H48.1476Z" fill="#8569D7"/>
<path d="M43.3661 56.592C41.3421 56.592 39.4568 56.1969 37.71 55.4067C35.9771 54.6165 34.4591 53.5282 33.156 52.1419C31.8667 50.7417 30.8616 49.1267 30.1408 47.2968C29.4199 45.4668 29.0594 43.5191 29.0594 41.4535C29.0594 39.2354 29.4545 37.2114 30.2447 35.3814C31.0349 33.5515 32.1093 31.9711 33.4679 30.6403C34.8265 29.2956 36.3653 28.2628 38.0843 27.5419C39.8172 26.8071 41.6194 26.4398 43.4909 26.4398C45.5427 26.4398 47.5528 26.918 49.5214 27.8746C51.4899 28.8311 53.2505 30.3491 54.8032 32.4286L49.6877 35.1735C48.8005 34.1476 47.8093 33.3852 46.7141 32.8861C45.6328 32.387 44.5306 32.1375 43.4077 32.1375C42.2848 32.1375 41.2035 32.3662 40.1638 32.8237C39.1379 33.2812 38.2229 33.9328 37.4189 34.7784C36.6148 35.624 35.9771 36.6222 35.5058 37.7728C35.0344 38.9235 34.7988 40.1919 34.7988 41.5782C34.7988 42.8675 35.0206 44.0736 35.4642 45.1965C35.9217 46.3194 36.5455 47.3037 37.3357 48.1493C38.1259 48.995 39.0409 49.6604 40.0806 50.1456C41.1342 50.617 42.2571 50.8526 43.4493 50.8526C44.1841 50.8526 44.905 50.7487 45.612 50.5407C46.3328 50.3189 47.0191 50.0001 47.6706 49.5842C48.3222 49.1683 48.9183 48.6484 49.459 48.0246C50.0135 47.4007 50.4987 46.6799 50.9146 45.8619H46.4022V40.8712H57.6729C57.756 43.02 57.4441 45.044 56.7371 46.9433C56.0301 48.8425 55.0181 50.5199 53.7011 51.9756C52.3841 53.4173 50.8453 54.5472 49.0847 55.3651C47.3241 56.183 45.4179 56.592 43.3661 56.592Z" fill="white"/>
<path fill-rule="evenodd" clip-rule="evenodd" d="M37.3915 56.1079L37.3905 56.1074C35.5667 55.2758 33.9666 54.1287 32.5949 52.6694L32.5921 52.6666L32.5894 52.6636C31.2337 51.1913 30.1787 49.4944 29.4242 47.5791C28.6662 45.6548 28.2893 43.6108 28.2893 41.4535C28.2893 39.1423 28.7014 37.0128 29.5377 35.0762C30.3653 33.1596 31.4949 31.4953 32.9276 30.0915C34.3537 28.6802 35.9739 27.592 37.7851 26.8323C39.6121 26.0578 41.516 25.6696 43.4909 25.6696C45.667 25.6696 47.7917 26.1779 49.858 27.1819C51.956 28.2014 53.8077 29.808 55.4203 31.9679L55.9554 32.6844L49.5086 36.1437L49.1052 35.6773C48.2813 34.7246 47.377 34.0345 46.3947 33.587L46.3931 33.5862L46.3914 33.5854C45.405 33.1301 44.4125 32.9077 43.4078 32.9077C42.3936 32.9077 41.4184 33.1134 40.4758 33.5279C39.5462 33.9427 38.714 34.5341 37.9771 35.3091C37.2431 36.081 36.656 36.9968 36.2185 38.0648C35.7892 39.1127 35.569 40.2806 35.569 41.5783C35.569 42.7758 35.7744 43.884 36.179 44.9098C36.6027 45.9484 37.1763 46.8507 37.8985 47.6235C38.6206 48.3963 39.4535 49.0022 40.4008 49.4452C41.3506 49.8691 42.364 50.0825 43.4494 50.0825C44.1087 50.0825 44.7549 49.9896 45.3901 49.8032C46.0414 49.6024 46.6631 49.3136 47.2563 48.935C47.8412 48.5617 48.3816 48.0918 48.877 47.5202L48.8802 47.5165L48.8834 47.5129C49.125 47.2411 49.3535 46.9477 49.5686 46.6321H45.632V40.1011H58.4138L58.4425 40.8415C58.5293 43.0856 58.2036 45.2116 57.4589 47.212C56.719 49.1997 55.6568 50.9619 54.2722 52.4923L54.271 52.4937L54.2697 52.495C52.8844 54.0116 51.2628 55.2025 49.4092 56.0636C47.5412 56.9314 45.5235 57.3622 43.3662 57.3622C41.2389 57.3622 39.2446 56.9462 37.3926 56.1084L37.3915 56.1079ZM50.9146 45.862C50.7788 46.129 50.6356 46.3858 50.4851 46.6321C50.1745 47.1403 49.8325 47.6045 49.459 48.0246C48.9183 48.6484 48.3222 49.1683 47.6707 49.5842C47.0191 50.0001 46.3329 50.3189 45.612 50.5408C44.905 50.7487 44.1841 50.8527 43.4494 50.8527C42.2571 50.8527 41.1342 50.617 40.0806 50.1457C39.0409 49.6604 38.1259 48.995 37.3357 48.1494C36.5455 47.3037 35.9217 46.3194 35.4642 45.1965C35.0206 44.0736 34.7988 42.8675 34.7988 41.5783C34.7988 40.192 35.0345 38.9235 35.5058 37.7729C35.9772 36.6222 36.6149 35.6241 37.4189 34.7784C38.223 33.9328 39.1379 33.2812 40.1638 32.8237C41.2035 32.3663 42.2849 32.1375 43.4078 32.1375C44.5307 32.1375 45.6328 32.387 46.7141 32.8861C47.8093 33.3852 48.8005 34.1477 49.6877 35.1735L54.8032 32.4286C54.6454 32.2173 54.4855 32.0118 54.3234 31.8121C52.8906 30.0464 51.2899 28.734 49.5214 27.8746C47.5528 26.9181 45.5427 26.4398 43.4909 26.4398C41.6194 26.4398 39.8172 26.8072 38.0843 27.5419C36.3653 28.2628 34.8265 29.2956 33.4679 30.6403C32.1094 31.9712 31.035 33.5515 30.2448 35.3815C29.4546 37.2114 29.0595 39.2354 29.0595 41.4535C29.0595 43.5191 29.4199 45.4669 30.1408 47.2968C30.8617 49.1267 31.8668 50.7418 33.156 52.1419C34.4591 53.5282 35.9772 54.6165 37.71 55.4067C39.4568 56.1969 41.3422 56.592 43.3662 56.592C45.4179 56.592 47.3241 56.183 49.0847 55.3651C50.8453 54.5472 52.3841 53.4173 53.7011 51.9756C55.0181 50.52 56.0301 48.8425 56.7371 46.9433C57.4441 45.044 57.7561 43.02 57.6729 40.8713H46.4022V45.862H50.9146Z" fill="#8569D7"/>
<path d="M47.3656 37.225L55.8803 32.7323L49.2054 35.7274L48.3925 34.9145L46.1248 35.4707C46.7409 36.0526 47.2087 36.8827 47.3656 37.225Z" fill="#8569D7"/>
<path fill-rule="evenodd" clip-rule="evenodd" d="M54.673 33.3209L49.196 35.7785L48.3792 34.9617L46.2103 35.4937C46.7809 36.0543 47.2162 36.8111 47.3853 37.1661L54.673 33.3209ZM49.2148 35.6763L55.8627 32.6932L55.9002 32.7701L47.3455 37.2839L47.3266 37.2428C47.171 36.9033 46.706 36.0785 46.0953 35.5018L46.0382 35.4478L48.4056 34.8671L49.2148 35.6763Z" fill="#8569D7"/>
<path d="M22.6642 43.5847C21.0283 43.5847 19.4618 43.3282 17.9646 42.8153C16.4812 42.3023 15.1781 41.5607 14.0552 40.5903C12.9462 39.6198 12.149 38.4692 11.6638 37.1383L17.0496 35.1421C17.216 35.6134 17.5626 36.057 18.0894 36.4729C18.6162 36.875 19.2747 37.2077 20.0648 37.4711C20.855 37.7206 21.7215 37.8454 22.6642 37.8454C23.5653 37.8454 24.4109 37.7137 25.2011 37.4503C26.0052 37.173 26.6498 36.7918 27.135 36.3066C27.6341 35.8214 27.8836 35.253 27.8836 34.6014C27.8836 33.9498 27.6272 33.4092 27.1142 32.9794C26.6013 32.5497 25.9428 32.21 25.1387 31.9605C24.3347 31.6971 23.5098 31.4961 22.6642 31.3574C20.5708 31.0525 18.6924 30.5603 17.0288 29.881C15.3791 29.1879 14.076 28.2382 13.1194 27.0322C12.1629 25.8122 11.6846 24.2665 11.6846 22.395C11.6846 20.5928 12.1906 19.0193 13.2026 17.6746C14.2285 16.3299 15.5732 15.2832 17.2368 14.5346C18.9142 13.786 20.7233 13.4117 22.6642 13.4117C24.2723 13.4117 25.825 13.6681 27.3222 14.1811C28.8194 14.694 30.1225 15.4357 31.2316 16.4061C32.3545 17.3765 33.1585 18.541 33.6437 19.8996L28.2579 21.8543C28.0916 21.383 27.745 20.9463 27.2182 20.5442C26.6914 20.1422 26.0329 19.8164 25.2427 19.5669C24.4525 19.3174 23.593 19.1926 22.6642 19.1926C21.7769 19.1787 20.9313 19.3104 20.1272 19.5877C19.337 19.8649 18.6855 20.2462 18.1725 20.7314C17.6735 21.2166 17.4239 21.7711 17.4239 22.395C17.4239 23.2129 17.6596 23.8298 18.1309 24.2457C18.6162 24.6616 19.2539 24.9596 20.0441 25.1398C20.8342 25.3201 21.7076 25.4795 22.6642 25.6181C24.6327 25.9093 26.4488 26.4291 28.1124 27.1777C29.7759 27.9125 31.1068 28.8967 32.1049 30.1306C33.1169 31.3505 33.6229 32.8408 33.6229 34.6014C33.6229 36.4036 33.1169 37.9771 32.1049 39.3218C31.0929 40.6665 29.7551 41.7132 28.0916 42.4618C26.428 43.2104 24.6189 43.5847 22.6642 43.5847Z" fill="#8569D7"/>
<path fill-rule="evenodd" clip-rule="evenodd" d="M17.714 43.5435L17.7129 43.5431C16.1425 43.0001 14.7527 42.2109 13.5516 41.1729L13.5498 41.1714L13.5481 41.1698C12.3455 40.1176 11.4717 38.8598 10.9403 37.4021L10.6779 36.6824L17.5155 34.148L17.7759 34.8857C17.8795 35.1792 18.1142 35.5102 18.5617 35.8645C19.0043 36.2012 19.5787 36.4966 20.3026 36.7384C21.0067 36.9601 21.7919 37.0752 22.6642 37.0752C23.4878 37.0752 24.2493 36.9552 24.9538 36.7209C25.6713 36.4729 26.2059 36.1464 26.5904 35.7619L26.5943 35.7581L26.5982 35.7543C26.9594 35.4031 27.1135 35.0296 27.1135 34.6014C27.1135 34.1847 26.9633 33.8577 26.6196 33.5697C26.2023 33.2201 25.6413 32.9228 24.9105 32.696L24.9047 32.6942L24.899 32.6924C24.1351 32.4421 23.351 32.2508 22.5463 32.1185C20.4045 31.806 18.4664 31.2999 16.7377 30.594L16.7341 30.5925L16.7305 30.591C14.9808 29.8559 13.5654 28.8338 12.516 27.5107L12.5147 27.509L12.5134 27.5073C11.4298 26.1254 10.9145 24.4019 10.9145 22.3949C10.9145 20.4382 11.4675 18.6994 12.5873 17.2114L12.5888 17.2094L12.5903 17.2074C13.6999 15.753 15.1498 14.6291 16.9207 13.8322L16.9218 13.8317L16.9229 13.8312C18.7047 13.0361 20.6214 12.6415 22.6642 12.6415C24.3558 12.6415 25.9929 12.9115 27.5718 13.4525C29.156 13.9952 30.5477 14.7847 31.7372 15.8251C32.9566 16.8795 33.8381 18.1538 34.3691 19.6405L34.6268 20.3621L27.7903 22.8433L27.5317 22.1106C27.429 21.8198 27.1967 21.4966 26.751 21.1565C26.3102 20.8201 25.7365 20.5304 25.0108 20.3013C24.3041 20.0781 23.5237 19.9627 22.6642 19.9627H22.6582L22.6522 19.9626C21.8512 19.9501 21.0955 20.0687 20.3802 20.3151C19.6766 20.5622 19.1259 20.8909 18.7057 21.2871C18.3396 21.6446 18.1941 22.0055 18.1941 22.3949C18.1941 23.0593 18.3796 23.4357 18.6366 23.6647C19.0046 23.9786 19.5179 24.2299 20.2153 24.3889C20.982 24.5638 21.8348 24.7197 22.7747 24.8559L22.7758 24.856L22.7769 24.8562C24.8083 25.1566 26.6927 25.6946 28.4259 26.4742C30.1824 27.2504 31.6159 28.3028 32.7008 29.6425C33.8382 31.0155 34.3931 32.6841 34.3931 34.6014C34.3931 36.5581 33.8401 38.2969 32.7203 39.7849C31.6238 41.2419 30.1793 42.3668 28.4076 43.1641C26.6377 43.9605 24.7199 44.3548 22.6642 44.3548C20.9463 44.3548 19.2952 44.0852 17.715 43.5438L17.714 43.5435ZM32.1049 30.1305C31.1068 28.8967 29.7759 27.9124 28.1124 27.1777C26.4488 26.4291 24.6327 25.9092 22.6642 25.6181C21.7076 25.4795 20.8343 25.32 20.0441 25.1398C19.2539 24.9596 18.6162 24.6615 18.131 24.2456C17.6596 23.8298 17.4239 23.2129 17.4239 22.3949C17.4239 21.7711 17.6735 21.2166 18.1726 20.7314C18.6855 20.2462 19.3371 19.8649 20.1272 19.5877C20.9313 19.3104 21.777 19.1787 22.6642 19.1926C23.593 19.1926 24.4525 19.3173 25.2427 19.5669C26.0329 19.8164 26.6914 20.1422 27.2182 20.5442C27.7321 20.9364 28.0745 21.3616 28.2454 21.8197C28.2497 21.8312 28.2539 21.8427 28.2579 21.8543L33.6437 19.8996L33.6437 19.8996C33.6437 19.8995 33.6437 19.8994 33.6437 19.8994C33.6339 19.872 33.624 19.8448 33.614 19.8176C33.5346 19.6022 33.4471 19.3918 33.3515 19.1863C32.8594 18.129 32.1528 17.2022 31.2316 16.4061C30.1225 15.4357 28.8194 14.694 27.3222 14.1811C25.825 13.6681 24.2723 13.4117 22.6642 13.4117C20.7234 13.4117 18.9142 13.786 17.2368 14.5346C15.5732 15.2832 14.2285 16.3298 13.2026 17.6745C12.1906 19.0193 11.6846 20.5927 11.6846 22.3949C11.6846 24.2664 12.1629 25.8122 13.1195 27.0321C14.076 28.2382 15.3791 29.1878 17.0288 29.881C18.6924 30.5603 20.5709 31.0524 22.6642 31.3574C23.5098 31.496 24.3347 31.6971 25.1388 31.9605C25.9428 32.21 26.6013 32.5496 27.1142 32.9794C27.6272 33.4091 27.8836 33.9498 27.8836 34.6014C27.8836 35.2529 27.6341 35.8213 27.135 36.3065C26.6498 36.7917 26.0052 37.173 25.2011 37.4502C24.4109 37.7136 23.5653 37.8453 22.6642 37.8453C21.7215 37.8453 20.8551 37.7206 20.0649 37.471C19.2747 37.2076 18.6162 36.8749 18.0894 36.4729C17.5857 36.0752 17.2467 35.6522 17.0726 35.2039C17.0646 35.1833 17.0569 35.1627 17.0496 35.142L11.6638 37.1383C11.6742 37.1667 11.6847 37.1951 11.6954 37.2233C11.7758 37.4368 11.8643 37.6455 11.9609 37.8496C12.4507 38.8835 13.1488 39.7971 14.0552 40.5902C15.1781 41.5606 16.4813 42.3023 17.9646 42.8152C19.4618 43.3282 21.0283 43.5846 22.6642 43.5846C24.6189 43.5846 26.428 43.2103 28.0916 42.4617C29.7552 41.7131 31.0929 40.6665 32.1049 39.3218C33.117 37.977 33.623 36.4036 33.623 34.6014C33.623 32.8408 33.117 31.3505 32.1049 30.1305Z" fill="#8569D7"/>
<path d="M28.9552 41.5398C27.2925 41.5398 25.7002 41.2791 24.1783 40.7577C22.6705 40.2363 21.3459 39.4825 20.2045 38.4961C19.0772 37.5097 18.267 36.3401 17.7738 34.9873L23.2483 32.9582C23.4174 33.4373 23.7696 33.8882 24.3051 34.311C24.8406 34.7196 25.5099 35.0578 26.3131 35.3255C27.1163 35.5792 27.997 35.706 28.9552 35.706C29.8712 35.706 30.7307 35.5721 31.5339 35.3044C32.3512 35.0226 33.0065 34.6351 33.4997 34.1419C34.007 33.6487 34.2606 33.0709 34.2606 32.4086C34.2606 31.7463 33.9999 31.1968 33.4785 30.76C32.9572 30.3231 32.2878 29.9779 31.4705 29.7243C30.6532 29.4565 29.8148 29.2522 28.9552 29.1113C26.8275 28.8013 24.9181 28.301 23.2271 27.6106C21.5503 26.906 20.2257 25.9407 19.2534 24.7148C18.2811 23.4748 17.7949 21.9036 17.7949 20.0013C17.7949 18.1694 18.3093 16.57 19.3379 15.2032C20.3807 13.8363 21.7475 12.7724 23.4385 12.0115C25.1435 11.2506 26.9825 10.8701 28.9552 10.8701C30.5898 10.8701 32.168 11.1308 33.6899 11.6522C35.2118 12.1736 36.5363 12.9274 37.6636 13.9138C38.805 14.9002 39.6223 16.0839 40.1155 17.4648L34.6411 19.4517C34.472 18.9726 34.1197 18.5287 33.5842 18.1201C33.0488 17.7114 32.3794 17.3803 31.5762 17.1266C30.773 16.873 29.8994 16.7462 28.9552 16.7462C28.0534 16.7321 27.1938 16.866 26.3765 17.1478C25.5733 17.4296 24.911 17.8171 24.3897 18.3103C23.8824 18.8035 23.6287 19.3672 23.6287 20.0013C23.6287 20.8327 23.8683 21.4597 24.3474 21.8825C24.8406 22.3052 25.4888 22.6082 26.292 22.7913C27.0952 22.9745 27.9829 23.1366 28.9552 23.2775C30.9562 23.5734 32.8022 24.1018 34.4931 24.8628C36.1841 25.6096 37.5368 26.6101 38.5514 27.8642C39.5801 29.1042 40.0944 30.619 40.0944 32.4086C40.0944 34.2405 39.5801 35.8399 38.5514 37.2067C37.5227 38.5736 36.1629 39.6375 34.472 40.3984C32.781 41.1593 30.9421 41.5398 28.9552 41.5398Z" fill="#F59FAF"/>
<path fill-rule="evenodd" clip-rule="evenodd" d="M23.9277 41.4859L23.9266 41.4856C22.3318 40.9341 20.9206 40.1327 19.701 39.0788L19.6992 39.0772L19.6974 39.0757C18.4766 38.0075 17.5897 36.7307 17.0502 35.2511L16.7878 34.5314L23.7142 31.9641L23.9745 32.7018C24.0809 33.0031 24.3213 33.3413 24.7773 33.7025C25.2286 34.0458 25.8139 34.3467 26.5508 34.5929C27.268 34.8187 28.0675 34.9358 28.9553 34.9358C29.7937 34.9358 30.5692 34.8137 31.2866 34.575C32.0174 34.3225 32.5626 33.9897 32.9551 33.5972L32.9589 33.5934L32.9628 33.5896C33.3323 33.2304 33.4904 32.8476 33.4904 32.4086C33.4904 31.9812 33.3361 31.6453 32.9839 31.3503C32.5582 30.9936 31.9863 30.6907 31.2423 30.4598L31.2365 30.458L31.2308 30.4561C30.4537 30.2015 29.6559 30.0069 28.8372 29.8724C26.661 29.5548 24.692 29.0406 22.936 28.3235L22.9324 28.3221L22.9288 28.3206C21.1519 27.574 19.7151 26.5363 18.65 25.1933L18.6486 25.1917L18.6473 25.19C17.548 23.788 17.0248 22.039 17.0248 20.0012C17.0248 18.0149 17.5861 16.2501 18.7226 14.74L18.7241 14.738L18.7256 14.736C19.8521 13.2594 21.3242 12.1184 23.1225 11.3091L23.1236 11.3087L23.1246 11.3082C24.934 10.5007 26.8806 10.0999 28.9553 10.0999C30.6734 10.0999 32.336 10.3742 33.9395 10.9236C35.5483 11.4747 36.9615 12.2764 38.1693 13.3328C39.4072 14.4032 40.3019 15.6967 40.8408 17.2058L41.0986 17.9274L34.1734 20.4407L33.9148 19.708C33.8094 19.4094 33.5714 19.0791 33.117 18.7323C32.6675 18.3893 32.083 18.0943 31.3443 17.861C30.6246 17.6338 29.8301 17.5163 28.9553 17.5163H28.9492L28.9432 17.5162C28.1276 17.5035 27.358 17.6242 26.6295 17.8752C25.9129 18.1269 25.3514 18.4619 24.9228 18.8661C24.5484 19.2316 24.3989 19.6015 24.3989 20.0012C24.3989 20.6791 24.5883 21.0657 24.8531 21.3015C25.229 21.6222 25.7528 21.8784 26.4633 22.0404C27.243 22.2182 28.1101 22.3768 29.0657 22.5152L29.0668 22.5154L29.0679 22.5156C31.1318 22.8208 33.0461 23.3673 34.8067 24.1593C36.5905 24.9475 38.046 26.0161 39.1473 27.3762C40.3013 28.7692 40.8646 30.4624 40.8646 32.4086C40.8646 34.395 40.3032 36.1597 39.1668 37.6698C38.0536 39.1489 36.5871 40.2911 34.788 41.1007C32.9907 41.9095 31.0432 42.3099 28.9553 42.3099C27.2104 42.3099 25.5336 42.0361 23.9287 41.4863L23.9277 41.4859ZM38.5514 27.8642C37.5368 26.61 36.1841 25.6096 34.4931 24.8627C32.8022 24.1018 30.9562 23.5734 28.9553 23.2775C27.983 23.1365 27.0952 22.9745 26.292 22.7913C25.4888 22.6081 24.8406 22.3052 24.3474 21.8824C23.8683 21.4597 23.6287 20.8326 23.6287 20.0012C23.6287 19.3671 23.8824 18.8035 24.3897 18.3103C24.9111 17.8171 25.5733 17.4296 26.3765 17.1478C27.1938 16.8659 28.0534 16.7321 28.9553 16.7461C29.8994 16.7461 30.773 16.873 31.5762 17.1266C32.3794 17.3803 33.0488 17.7114 33.5842 18.1201C34.1066 18.5187 34.4547 18.9509 34.6284 19.4166C34.6327 19.4283 34.637 19.44 34.6411 19.4517L40.1155 17.4648C40.1056 17.4369 40.0955 17.409 40.0852 17.3813C40.006 17.1665 39.9189 16.9565 39.8238 16.7514C39.3235 15.6718 38.6034 14.7259 37.6637 13.9138C36.5364 12.9274 35.2118 12.1735 33.6899 11.6522C32.1681 11.1308 30.5898 10.8701 28.9553 10.8701C26.9825 10.8701 25.1436 11.2506 23.4385 12.0115C21.7476 12.7724 20.3807 13.8363 19.338 15.2032C18.3093 16.57 17.795 18.1694 17.795 20.0012C17.795 21.9036 18.2811 23.4747 19.2534 24.7148C20.2257 25.9407 21.5503 26.906 23.2271 27.6105C24.9181 28.301 26.8275 28.8012 28.9553 29.1112C29.8148 29.2522 30.6532 29.4565 31.4705 29.7242C32.2878 29.9779 32.9572 30.3231 33.4786 30.7599C33.9999 31.1968 34.2606 31.7463 34.2606 32.4086C34.2606 33.0709 34.007 33.6486 33.4997 34.1418C33.0065 34.635 32.3512 35.0225 31.534 35.3044C30.7308 35.5721 29.8712 35.706 28.9553 35.706C27.997 35.706 27.1163 35.5791 26.3131 35.3255C25.5099 35.0578 24.8406 34.7196 24.3051 34.3109C23.7931 33.9067 23.4486 33.4767 23.2716 33.021C23.2635 33.0001 23.2557 32.9792 23.2483 32.9582L17.7738 34.9873C17.7738 34.9873 17.7738 34.9874 17.7739 34.9874C17.7844 35.0162 17.795 35.0449 17.8058 35.0736C17.886 35.2866 17.9742 35.495 18.0704 35.6988C18.5684 36.7545 19.2798 37.6869 20.2046 38.496C21.346 39.4824 22.6705 40.2363 24.1783 40.7577C25.7002 41.2791 27.2925 41.5398 28.9553 41.5398C30.9421 41.5398 32.781 41.1593 34.472 40.3984C36.1629 39.6374 37.5227 38.5735 38.5514 37.2067C39.5801 35.8398 40.0944 34.2405 40.0944 32.4086C40.0944 30.619 39.5801 29.1042 38.5514 27.8642Z" fill="#F59FAF"/>
<path d="M112.842 47.22C111.654 47.22 110.503 47.0513 109.388 46.714C108.288 46.3767 107.415 45.9293 106.77 45.372L107.76 43.15C108.391 43.6487 109.161 44.0593 110.07 44.382C110.994 44.69 111.918 44.844 112.842 44.844C113.986 44.844 114.837 44.6607 115.394 44.294C115.966 43.9273 116.252 43.4433 116.252 42.842C116.252 42.402 116.091 42.0427 115.768 41.764C115.46 41.4707 115.064 41.2433 114.58 41.082C114.096 40.9207 113.436 40.7373 112.6 40.532C111.427 40.2533 110.473 39.9747 109.74 39.696C109.021 39.4173 108.398 38.9847 107.87 38.398C107.357 37.7967 107.1 36.99 107.1 35.978C107.1 35.1273 107.327 34.3573 107.782 33.668C108.251 32.964 108.948 32.4067 109.872 31.996C110.811 31.5853 111.955 31.38 113.304 31.38C114.243 31.38 115.167 31.4973 116.076 31.732C116.985 31.9667 117.77 32.304 118.43 32.744L117.528 34.966C116.853 34.57 116.149 34.2693 115.416 34.064C114.683 33.8587 113.971 33.756 113.282 33.756C112.153 33.756 111.309 33.9467 110.752 34.328C110.209 34.7093 109.938 35.2153 109.938 35.846C109.938 36.286 110.092 36.6453 110.4 36.924C110.723 37.2027 111.126 37.4227 111.61 37.584C112.094 37.7453 112.754 37.9287 113.59 38.134C114.734 38.398 115.673 38.6767 116.406 38.97C117.139 39.2487 117.763 39.6813 118.276 40.268C118.804 40.8547 119.068 41.6467 119.068 42.644C119.068 43.4947 118.833 44.2647 118.364 44.954C117.909 45.6433 117.213 46.1933 116.274 46.604C115.335 47.0147 114.191 47.22 112.842 47.22ZM137.15 31.6C138.485 31.6 139.643 31.82 140.626 32.26C141.623 32.7 142.386 33.3307 142.914 34.152C143.442 34.9733 143.706 35.9487 143.706 37.078C143.706 38.1927 143.442 39.168 142.914 40.004C142.386 40.8253 141.623 41.456 140.626 41.896C139.643 42.336 138.485 42.556 137.15 42.556H133.674V47H130.814V31.6H137.15ZM137.018 40.136C138.265 40.136 139.211 39.872 139.856 39.344C140.501 38.816 140.824 38.0607 140.824 37.078C140.824 36.0953 140.501 35.34 139.856 34.812C139.211 34.284 138.265 34.02 137.018 34.02H133.674V40.136H137.018ZM164.687 43.436H156.987L155.469 47H152.521L159.451 31.6H162.267L169.219 47H166.227L164.687 43.436ZM163.741 41.192L160.837 34.46L157.955 41.192H163.741ZM187 47.22C185.446 47.22 184.038 46.8827 182.776 46.208C181.53 45.5187 180.547 44.5727 179.828 43.37C179.124 42.1673 178.772 40.8107 178.772 39.3C178.772 37.7893 179.132 36.4327 179.85 35.23C180.569 34.0273 181.552 33.0887 182.798 32.414C184.06 31.7247 185.468 31.38 187.022 31.38C188.284 31.38 189.435 31.6 190.476 32.04C191.518 32.48 192.398 33.118 193.116 33.954L191.268 35.692C190.154 34.4893 188.782 33.888 187.154 33.888C186.098 33.888 185.152 34.1227 184.316 34.592C183.48 35.0467 182.828 35.6847 182.358 36.506C181.889 37.3273 181.654 38.2587 181.654 39.3C181.654 40.3413 181.889 41.2727 182.358 42.094C182.828 42.9153 183.48 43.5607 184.316 44.03C185.152 44.4847 186.098 44.712 187.154 44.712C188.782 44.712 190.154 44.1033 191.268 42.886L193.116 44.646C192.398 45.482 191.51 46.12 190.454 46.56C189.413 47 188.262 47.22 187 47.22ZM216.317 44.602V47H204.767V31.6H216.009V33.998H207.627V38.002H215.063V40.356H207.627V44.602H216.317ZM253.921 39.124H256.627V45.262C255.835 45.8927 254.911 46.3767 253.855 46.714C252.799 47.0513 251.714 47.22 250.599 47.22C249.03 47.22 247.614 46.8827 246.353 46.208C245.092 45.5187 244.102 44.5727 243.383 43.37C242.664 42.1673 242.305 40.8107 242.305 39.3C242.305 37.7893 242.664 36.4327 243.383 35.23C244.102 34.0273 245.092 33.0887 246.353 32.414C247.629 31.7247 249.059 31.38 250.643 31.38C251.934 31.38 253.107 31.5927 254.163 32.018C255.219 32.4433 256.106 33.0667 256.825 33.888L255.021 35.648C253.848 34.4747 252.432 33.888 250.775 33.888C249.69 33.888 248.722 34.1153 247.871 34.57C247.035 35.0247 246.375 35.6627 245.891 36.484C245.422 37.3053 245.187 38.244 245.187 39.3C245.187 40.3267 245.422 41.2507 245.891 42.072C246.375 42.8933 247.035 43.5387 247.871 44.008C248.722 44.4773 249.682 44.712 250.753 44.712C251.956 44.712 253.012 44.448 253.921 43.92V39.124ZM269.309 31.6H272.169V44.58H280.221V47H269.309V31.6ZM301.484 43.436L293.784 43.436L292.266 47H289.318L296.248 31.6H299.064L306.016 47H303.024L301.484 43.436ZM300.538 41.192L297.634 34.46L294.752 41.192H300.538ZM331.031 47L331.009 36.792L325.949 45.24H324.673L319.613 36.924V47H316.885V31.6H319.239L325.355 41.808L331.361 31.6H333.715L333.737 47H331.031Z" fill="#3D497C"/>
</svg>
