<svg width="1440" height="180" viewBox="0 0 1440 180" fill="none" xmlns="http://www.w3.org/2000/svg">
<path fill-rule="evenodd" clip-rule="evenodd" d="M1440 180L1400.4 156C1359.6 132 1280.4 84 1200 60C1119.6 36 1040.4 36 960 66C879.6 96 800.4 156 720 168C639.6 180 560.4 144 480 120C399.6 96 320.4 84 240 96C159.6 108 80.3999 144 39.6 162L0 180V0H39.6C80.3999 0 159.6 0 240 0C320.4 0 399.6 0 480 0C560.4 0 639.6 0 720 0C800.4 0 879.6 0 960 0C1040.4 0 1119.6 0 1200 0C1280.4 0 1359.6 0 1400.4 0H1440V180Z" fill="#2A2850"/>
</svg>
