<svg width="1440" height="214" viewBox="0 0 1440 214" fill="none" xmlns="http://www.w3.org/2000/svg">
<path fill-rule="evenodd" clip-rule="evenodd" d="M0 64.134L48 42.0458C96 20.9616 192 -22.2108 288 13.9335C384 50.0779 480 165.539 576 194.655C672 222.767 768 165.539 864 114.334C960 64.134 1056 20.9616 1152 20.9616C1248 20.9616 1344 64.134 1392 86.2222L1440 107.306V214H1392C1344 214 1248 214 1152 214C1056 214 960 214 864 214C768 214 672 214 576 214C480 214 384 214 288 214C192 214 96 214 48 214H0V64.134Z" fill="#2A2850"/>
</svg>
