<svg width="79" height="79" viewBox="0 0 79 79" fill="none" xmlns="http://www.w3.org/2000/svg">
<path d="M59.1193 36.2983C58.9006 35.8414 58.4385 35.5504 57.9317 35.5504H46.4662L55.2537 1.64791C55.4103 1.04753 55.1247 0.419541 54.5717 0.14165C54.016 -0.138863 53.3433 0.00741113 52.9548 0.490518L20.0384 41.3068C19.7198 41.7018 19.6565 42.2443 19.8752 42.7024C20.0938 43.1593 20.5559 43.4503 21.0628 43.4503H32.5282L23.7408 77.3527C23.5842 77.9531 23.8698 78.5811 24.4228 78.859C24.611 78.9537 24.8138 78.9999 25.0139 78.9999C25.4023 78.9999 25.7828 78.8288 26.0395 78.5101L58.9559 37.6939C59.2747 37.2989 59.3379 36.7564 59.1193 36.2983ZM27.8224 72.1059L35.5065 42.464C35.6092 42.069 35.5222 41.6504 35.2735 41.3278C35.0247 41.0051 34.6402 40.8169 34.232 40.8169H23.8186L51.1746 6.8948L43.4906 36.5367C43.3878 36.9317 43.4749 37.3503 43.7236 37.6729C43.9725 37.9955 44.3568 38.1838 44.7651 38.1838H55.1785L27.8224 72.1059Z" fill="#F59FAF"/>
<path d="M23.5721 20.5077C23.3548 20.0468 22.8913 19.7532 22.3818 19.7532H16.196L21.0216 1.65939C21.1809 1.06024 20.9018 0.432234 20.3515 0.149092C19.8011 -0.135285 19.127 0.00559212 18.7334 0.482227L0.29981 22.8659C-0.0240679 23.2583 -0.0911888 23.8034 0.126067 24.2642C0.343322 24.7251 0.806842 25.0185 1.31634 25.0185H7.50211L2.67651 43.1125C2.51727 43.7116 2.7964 44.3396 3.34663 44.6228C3.5375 44.7215 3.74427 44.7689 3.94841 44.7689C4.33293 44.7689 4.70819 44.6016 4.96494 44.2896L23.3983 21.906C23.7222 21.5136 23.7893 20.9684 23.5721 20.5077ZM6.78183 37.9418L10.4883 24.0417C10.5937 23.6466 10.5094 23.2252 10.2605 22.9001C10.0117 22.5763 9.62591 22.3854 9.21639 22.3854H4.10641L16.9177 6.82878L13.2112 20.729C13.1059 21.124 13.1901 21.5454 13.439 21.8705C13.6879 22.1944 14.0736 22.3852 14.4831 22.3852H19.5931L6.78183 37.9418Z" fill="#F59FAF"/>
<path d="M78.8709 54.7397C78.6537 54.2788 78.1901 53.9852 77.6806 53.9852H71.4949L76.3205 35.8914C76.4799 35.2923 76.2006 34.6643 75.6504 34.3811C75.1 34.0967 74.4258 34.2362 74.0322 34.7142L55.5986 57.0979C55.2748 57.4903 55.2076 58.0354 55.4249 58.4962C55.6422 58.9571 56.1057 59.2507 56.6152 59.2507H62.8009L57.9753 77.3445C57.8159 77.9436 58.0951 78.5716 58.6455 78.8548C58.8363 78.9535 59.0431 79.0009 59.2472 79.0009C59.6318 79.0009 60.007 78.8336 60.2638 78.5217L78.6973 56.1382C79.0211 55.7456 79.0882 55.2005 78.8709 54.7397ZM62.0807 72.1739L65.7871 58.2737C65.8925 57.8787 65.8083 57.4573 65.5594 57.1322C65.3105 56.8083 64.9247 56.6174 64.5152 56.6174H59.4052L72.2165 41.0608L68.5101 54.961C68.4047 55.356 68.4889 55.7774 68.7378 56.1025C68.9867 56.4264 69.3725 56.6173 69.782 56.6173H74.892L62.0807 72.1739Z" fill="#F59FAF"/>
</svg>
