<svg width="220" height="175" viewBox="0 0 220 175" fill="none" xmlns="http://www.w3.org/2000/svg">
<path d="M175 87.5C175 135.825 135.825 175 87.5 175C39.1751 175 0 135.825 0 87.5C0 39.1751 39.1751 0 87.5 0C135.825 0 175 39.1751 175 87.5Z" fill="#6FD2DB"/>
<path fill-rule="evenodd" clip-rule="evenodd" d="M107.339 56.691L107.333 56.6833C99.9693 46.7319 88.6517 41.5039 72.5807 41.5039C56.3776 41.5039 45.0096 46.6899 37.6563 56.5203C30.1616 66.6906 26.1807 80.9792 26.1807 99.8319C26.1807 118.677 30.1584 133.029 37.662 143.319C45.0154 153.145 56.3818 158.328 72.5807 158.328C88.6627 158.328 99.9809 153.148 107.339 143.308C114.949 133.021 118.981 118.673 118.981 99.8319C118.981 81.1007 114.948 66.8706 107.345 56.6987L107.339 56.691ZM34.4447 145.696C26.2687 134.496 22.1807 119.208 22.1807 99.8319C22.1807 80.4559 26.2687 65.2239 34.4447 54.1359C42.7327 43.0479 55.4447 37.5039 72.5807 37.5039C89.6047 37.5039 102.261 43.1039 110.549 54.3039C118.837 65.3919 122.981 80.5679 122.981 99.8319C122.981 119.208 118.837 134.496 110.549 145.696C102.261 156.784 89.6047 162.328 72.5807 162.328C55.4447 162.328 42.7327 156.784 34.4447 145.696ZM57.7725 121.798L57.7664 121.782C55.7 116.487 54.8047 109.055 54.8047 99.8319C54.8047 90.7322 55.6971 83.4006 57.7726 78.2018C58.9397 75.2196 60.8243 72.769 63.4979 71.1081C66.1376 69.4683 69.2456 68.7839 72.5807 68.7839C75.8743 68.7839 78.9477 69.4745 81.5607 71.1227C84.2013 72.7883 86.0601 75.2363 87.2204 78.2009C89.2961 83.3997 90.1887 90.7317 90.1887 99.8319C90.1887 109.055 89.2933 116.487 87.227 121.782L87.2208 121.798L87.2146 121.813C86.0426 124.743 84.1674 127.147 81.5231 128.775C78.9169 130.378 75.8578 131.048 72.5807 131.048C69.2617 131.048 66.168 130.384 63.5355 128.789C60.859 127.167 58.9577 124.761 57.7788 121.813L57.7725 121.798ZM83.5007 79.6719C85.2927 84.1519 86.1887 90.8719 86.1887 99.8319C86.1887 108.904 85.2927 115.736 83.5007 120.328C81.7087 124.808 78.0687 127.048 72.5807 127.048C66.9807 127.048 63.2847 124.808 61.4927 120.328C59.7007 115.736 58.8047 108.904 58.8047 99.8319C58.8047 90.8719 59.7007 84.1519 61.4927 79.6719C63.2847 75.0799 66.9807 72.7839 72.5807 72.7839C78.0687 72.7839 81.7087 75.0799 83.5007 79.6719ZM168.359 102.856C159.623 111.928 147.751 122.064 132.743 133.264V161.32H219.599V131.248H181.127C183.163 129.968 185.134 128.634 187.04 127.248C195.305 121.236 202.35 114.225 208.175 106.216C215.455 96.2479 219.095 85.6079 219.095 74.2959C219.095 63.5439 215.735 54.7519 209.015 47.9199C202.407 40.9759 191.935 37.5039 177.599 37.5039C169.535 37.5039 162.143 39.0719 155.423 42.2079C148.703 45.3439 143.215 50.2719 138.959 56.9919C135.358 62.8312 133.195 70.0659 132.469 78.6959C132.36 79.9975 132.283 81.3308 132.239 82.6959H168.359C168.255 81.2454 168.226 79.9121 168.272 78.6959C168.374 75.9679 168.851 73.8292 169.703 72.2799C171.047 69.9279 172.839 68.7519 175.079 68.7519C176.983 68.7519 178.495 69.4799 179.615 70.9359C180.847 72.3919 181.463 74.4639 181.463 77.1519C181.463 85.1039 177.095 93.6719 168.359 102.856ZM182.729 68.4239C184.735 70.8383 185.463 73.9325 185.463 77.1519C185.463 86.5938 180.299 96.1077 171.257 105.613L171.249 105.622L171.24 105.63C162.619 114.583 151.1 124.462 136.743 135.265V157.32H215.599V135.248H167.253L178.998 127.862C189.454 121.286 198.087 113.286 204.94 103.863L204.945 103.857C211.773 94.5078 215.095 84.6817 215.095 74.2959C215.095 64.4538 212.055 56.7148 206.163 50.7249L206.14 50.7013L206.117 50.6774C200.57 44.8481 191.381 41.5039 177.599 41.5039C170.068 41.5039 163.26 42.9648 157.115 45.8326C151.145 48.6184 146.228 52.999 142.352 59.111C139.205 64.2216 137.196 70.7007 136.484 78.6959H164.269C164.374 75.5028 164.937 72.6447 166.198 70.3522L166.214 70.3237L166.23 70.2954C168.11 67.0049 171.081 64.7519 175.079 64.7519C178.141 64.7519 180.823 65.9906 182.729 68.4239Z" fill="#8569D7"/>
</svg>
