<svg width="228" height="175" viewBox="0 0 228 175" fill="none" xmlns="http://www.w3.org/2000/svg">
<path d="M175 87.5C175 135.825 135.825 175 87.5 175C39.1751 175 0 135.825 0 87.5C0 39.1751 39.1751 0 87.5 0C135.825 0 175 39.1751 175 87.5Z" fill="#6FD2DB"/>
<path fill-rule="evenodd" clip-rule="evenodd" d="M95.7726 56.691L95.7669 56.6833C88.4029 46.7319 77.0853 41.5039 61.0143 41.5039C44.8112 41.5039 33.4432 46.6899 26.0899 56.5203C18.5951 66.6906 14.6143 80.9792 14.6143 99.8319C14.6143 118.677 18.5919 133.029 26.0955 143.319C33.4489 153.145 44.8153 158.328 61.0143 158.328C77.0963 158.328 88.4145 153.148 95.7729 143.308C103.382 133.021 107.414 118.673 107.414 99.8319C107.414 81.1007 103.382 66.8706 95.7784 56.6987L95.7726 56.691ZM22.8783 145.696C14.7023 134.496 10.6143 119.208 10.6143 99.8319C10.6143 80.4559 14.7023 65.2239 22.8783 54.1359C31.1663 43.0479 43.8783 37.5039 61.0143 37.5039C78.0383 37.5039 90.6943 43.1039 98.9823 54.3039C107.27 65.3919 111.414 80.5679 111.414 99.8319C111.414 119.208 107.27 134.496 98.9823 145.696C90.6943 156.784 78.0383 162.328 61.0143 162.328C43.8783 162.328 31.1663 156.784 22.8783 145.696ZM46.2061 121.798L46.1999 121.782C44.1336 116.487 43.2383 109.055 43.2383 99.8319C43.2383 90.7322 44.1307 83.4006 46.2062 78.2018C47.3733 75.2196 49.2579 72.769 51.9315 71.1081C54.5712 69.4683 57.6792 68.7839 61.0143 68.7839C64.3079 68.7839 67.3813 69.4745 69.9943 71.1227C72.6349 72.7883 74.4937 75.2363 75.654 78.2009C77.7297 83.3997 78.6223 90.7317 78.6223 99.8319C78.6223 109.055 77.7269 116.487 75.6606 121.782L75.6544 121.798L75.6482 121.813C74.4762 124.743 72.601 127.147 69.9566 128.775C67.3505 130.378 64.2914 131.048 61.0143 131.048C57.6952 131.048 54.6016 130.384 51.9691 128.789C49.2926 127.167 47.3913 124.761 46.2124 121.813L46.2061 121.798ZM71.9343 79.6719C73.7263 84.1519 74.6223 90.8719 74.6223 99.8319C74.6223 108.904 73.7263 115.736 71.9343 120.328C70.1423 124.808 66.5023 127.048 61.0143 127.048C55.4143 127.048 51.7183 124.808 49.9263 120.328C48.1343 115.736 47.2383 108.904 47.2383 99.8319C47.2383 90.8719 48.1343 84.1519 49.9263 79.6719C51.7183 75.0799 55.4143 72.7839 61.0143 72.7839C66.5023 72.7839 70.1423 75.0799 71.9343 79.6719ZM177.793 144.52V163H215.425V144.52H227.521V112.264H215.425V42.0399H175.273L125.209 113.44V144.52H177.793ZM129.209 140.52H181.793V159H211.425V140.52H223.521V116.264H211.425V46.0399H177.353L129.209 114.703V140.52ZM184.817 71.129V116.264H155.274L184.817 71.129ZM162.673 112.264H180.817V84.5439L162.673 112.264Z" fill="#8569D7"/>
</svg>
