<svg width="219" height="175" viewBox="0 0 219 175" fill="none" xmlns="http://www.w3.org/2000/svg">
<path d="M175 87.5C175 135.825 135.825 175 87.5 175C39.1751 175 0 135.825 0 87.5C0 39.1751 39.1751 0 87.5 0C135.825 0 175 39.1751 175 87.5Z" fill="#6FD2DB"/>
<path fill-rule="evenodd" clip-rule="evenodd" d="M103.237 56.691L103.232 56.6833C95.8677 46.7319 84.5502 41.5039 68.4791 41.5039C52.2761 41.5039 40.908 46.6899 33.5548 56.5203C26.06 66.6906 22.0791 80.9792 22.0791 99.8319C22.0791 118.677 26.0568 133.029 33.5605 143.319C40.9139 153.145 52.2802 158.328 68.4791 158.328C84.5612 158.328 95.8794 153.148 103.238 143.308C110.847 133.021 114.879 118.673 114.879 99.8319C114.879 81.1007 110.846 66.8706 103.243 56.6987L103.237 56.691ZM30.3431 145.696C22.1671 134.496 18.0791 119.208 18.0791 99.8319C18.0791 80.4559 22.1671 65.2239 30.3431 54.1359C38.6311 43.0479 51.3431 37.5039 68.4791 37.5039C85.5031 37.5039 98.1591 43.1039 106.447 54.3039C114.735 65.3919 118.879 80.5679 118.879 99.8319C118.879 119.208 114.735 134.496 106.447 145.696C98.1591 156.784 85.5031 162.328 68.4791 162.328C51.3431 162.328 38.6311 156.784 30.3431 145.696ZM53.6709 121.798L53.6648 121.782C51.5984 116.487 50.7031 109.055 50.7031 99.8319C50.7031 90.7322 51.5955 83.4006 53.671 78.2018C54.8381 75.2196 56.7228 72.769 59.3964 71.1081C62.036 69.4683 65.1441 68.7839 68.4791 68.7839C71.7727 68.7839 74.8461 69.4745 77.4591 71.1227C80.0998 72.7883 81.9585 75.2363 83.1188 78.2009C85.1946 83.3997 86.0871 90.7317 86.0871 99.8319C86.0871 109.055 85.1918 116.487 83.1254 121.782L83.1193 121.798L83.113 121.813C81.9411 124.743 80.0658 127.147 77.4215 128.775C74.8153 130.378 71.7562 131.048 68.4791 131.048C65.1601 131.048 62.0664 130.384 59.4339 128.789C56.7574 127.167 54.8561 124.761 53.6772 121.813L53.6709 121.798ZM79.3991 79.6719C81.1911 84.1519 82.0871 90.8719 82.0871 99.8319C82.0871 108.904 81.1911 115.736 79.3991 120.328C77.6071 124.808 73.9671 127.048 68.4791 127.048C62.8791 127.048 59.1831 124.808 57.3911 120.328C55.5991 115.736 54.7031 108.904 54.7031 99.8319C54.7031 90.8719 55.5991 84.1519 57.3911 79.6719C59.1831 75.0799 62.8791 72.7839 68.4791 72.7839C73.9671 72.7839 77.6071 75.0799 79.3991 79.6719ZM202.762 97.2465C205.704 95.5693 208.437 93.2391 210.961 90.2559C214.657 85.7759 216.505 79.6159 216.505 71.7759C216.505 65.2799 214.881 59.4559 211.633 54.3039C208.497 49.1519 203.793 45.0639 197.521 42.0399C191.249 39.0159 183.689 37.5039 174.841 37.5039C161.177 37.5039 150.593 41.0319 143.089 48.0879C136.455 54.4206 132.663 63.2792 131.712 74.6639C131.603 75.9643 131.532 77.2976 131.497 78.6639H167.785C167.785 71.7199 169.857 68.2479 174.001 68.2479C175.793 68.2479 177.249 68.9199 178.369 70.2639C179.601 71.6079 180.217 73.6799 180.217 76.4799C180.217 82.9759 176.409 85.9999 168.793 85.5519H162.745V115.624H168.961C173.889 115.624 177.361 116.464 179.377 118.144C181.505 119.712 182.569 122.064 182.569 125.2C182.569 127.664 181.897 129.68 180.553 131.248C179.209 132.704 177.529 133.432 175.513 133.432C172.041 133.432 169.577 132.424 168.121 130.408C167.161 128.888 166.601 126.882 166.441 124.391C166.377 123.394 166.377 122.32 166.441 121.168H130.153C130.174 122.535 130.229 123.868 130.319 125.168C131.199 137.927 135.4 147.458 142.921 153.76C151.209 160.704 162.633 164.176 177.193 164.176C185.705 164.176 193.041 162.664 199.201 159.64C205.473 156.616 210.289 152.36 213.649 146.872C217.009 141.384 218.689 135.056 218.689 127.888C218.689 115.774 213.408 107.049 202.844 101.714C201.571 101.07 200.22 100.476 198.793 99.9316C198.705 99.8982 198.618 99.865 198.529 99.8319V99.1599C198.626 99.1268 198.723 99.0932 198.819 99.0588C200.173 98.5773 201.487 97.9732 202.762 97.2465ZM134.329 125.168C135.195 137.042 139.093 145.334 145.49 150.694C152.842 156.854 163.246 160.176 177.193 160.176C185.238 160.176 191.943 158.747 197.439 156.049L197.452 156.043L197.464 156.037C203.104 153.318 207.312 149.562 210.238 144.783C213.17 139.994 214.689 134.405 214.689 127.888C214.689 121.733 213.186 116.836 210.401 112.96C207.605 109.069 203.287 105.888 197.125 103.577L194.529 102.604V96.299L197.237 95.3745C201.024 94.0815 204.583 91.596 207.891 87.6918C210.808 84.1451 212.505 78.9996 212.505 71.7759C212.505 65.9824 211.068 60.9074 208.25 56.4371L208.233 56.4105L208.217 56.3837C205.541 51.9879 201.471 48.3849 195.784 45.643C190.18 42.9411 183.246 41.5039 174.841 41.5039C161.862 41.5039 152.387 44.8427 145.841 50.9914C140.151 56.428 136.66 64.175 135.726 74.6639H164.03C164.323 72.477 164.905 70.4778 165.905 68.8021C167.684 65.8201 170.564 64.2479 174.001 64.2479C176.917 64.2479 179.487 65.3976 181.383 67.6323C183.524 70.0161 184.217 73.2298 184.217 76.4799C184.217 80.5084 183.007 84.2448 179.849 86.7524C176.868 89.1199 172.892 89.7828 168.68 89.5519H166.745V111.624H168.961C174.057 111.624 178.704 112.437 181.844 114.993C185.127 117.46 186.569 121.1 186.569 125.2C186.569 128.425 185.671 131.424 183.591 133.851L183.543 133.907L183.493 133.961C181.377 136.253 178.624 137.432 175.513 137.432C171.303 137.432 167.358 136.182 164.879 132.75L164.806 132.649L164.74 132.544C163.41 130.439 162.723 127.923 162.489 125.168H134.329Z" fill="#8569D7"/>
</svg>
