<svg width="201" height="175" viewBox="0 0 201 175" fill="none" xmlns="http://www.w3.org/2000/svg">
<path d="M175 87.5C175 135.825 135.825 175 87.5 175C39.1751 175 0 135.825 0 87.5C0 39.1751 39.1751 0 87.5 0C135.825 0 175 39.1751 175 87.5Z" fill="#6FD2DB"/>
<path fill-rule="evenodd" clip-rule="evenodd" d="M121.366 56.691L121.361 56.6833C113.997 46.7319 102.679 41.5039 86.608 41.5039C70.405 41.5039 59.0369 46.6899 51.6837 56.5203C44.1889 66.6906 40.208 80.9792 40.208 99.8319C40.208 118.677 44.1857 133.029 51.6894 143.319C59.0428 153.145 70.4091 158.328 86.608 158.328C102.69 158.328 114.008 153.148 121.367 143.308C128.976 133.021 133.008 118.673 133.008 99.8319C133.008 81.1007 128.975 66.8706 121.372 56.6987L121.366 56.691ZM48.472 145.696C40.296 134.496 36.208 119.208 36.208 99.8319C36.208 80.4559 40.296 65.2239 48.472 54.1359C56.76 43.0479 69.472 37.5039 86.608 37.5039C103.632 37.5039 116.288 43.1039 124.576 54.3039C132.864 65.3919 137.008 80.5679 137.008 99.8319C137.008 119.208 132.864 134.496 124.576 145.696C116.288 156.784 103.632 162.328 86.608 162.328C69.472 162.328 56.76 156.784 48.472 145.696ZM71.7998 121.798L71.7937 121.782C69.7273 116.487 68.832 109.055 68.832 99.8319C68.832 90.7317 69.7245 83.3997 71.8003 78.2008C72.9674 75.219 74.8519 72.7688 77.5253 71.1081C80.165 69.4683 83.273 68.7839 86.608 68.7839C89.9016 68.7839 92.975 69.4745 95.588 71.1227C98.2287 72.7883 100.087 75.2363 101.248 78.2009C103.323 83.3997 104.216 90.7317 104.216 99.8319C104.216 109.055 103.321 116.487 101.254 121.782L101.248 121.798L101.242 121.813C100.07 124.743 98.1947 127.147 95.5504 128.775C92.9442 130.378 89.8851 131.048 86.608 131.048C83.289 131.048 80.1953 130.384 77.5628 128.789C74.8864 127.167 72.985 124.761 71.8061 121.813L71.7998 121.798ZM97.528 79.6719C99.32 84.1519 100.216 90.8719 100.216 99.8319C100.216 108.904 99.32 115.736 97.528 120.328C95.736 124.808 92.096 127.048 86.608 127.048C81.008 127.048 77.312 124.808 75.52 120.328C73.728 115.736 72.832 108.904 72.832 99.8319C72.832 90.8719 73.728 84.1519 75.52 79.6719C77.312 75.0799 81.008 72.7839 86.608 72.7839C92.096 72.7839 95.736 75.0799 97.528 79.6719ZM161.554 75.1359V163H200.698V40.1919H143.746V75.1359H161.554ZM147.746 71.1359H165.554V159H196.698V44.1919H147.746V71.1359Z" fill="#8569D7"/>
</svg>
