<svg width="26" height="26" viewBox="0 0 26 26" fill="none" xmlns="http://www.w3.org/2000/svg">
<path d="M25.7038 24.2744L19.3586 17.9292C20.9358 16.0326 21.886 13.5971 21.886 10.9434C21.886 4.90917 16.977 0 10.9431 0C4.90902 0 0 4.90917 0 10.9434C0 16.9771 4.90902 21.8859 10.9431 21.8859C13.5966 21.8859 16.0323 20.9358 17.9289 19.3586L24.2743 25.7039C24.4716 25.9013 24.7304 26 24.9891 26C25.2477 26 25.5065 25.9013 25.7039 25.7039C26.0987 25.3091 26.0987 24.6692 25.7038 24.2744ZM2.02172 10.9434C2.02172 6.02395 6.0238 2.02173 10.9431 2.02173C15.8622 2.02173 19.8641 6.02395 19.8641 10.9434C19.8641 15.8624 15.8622 19.8642 10.9431 19.8642C6.0238 19.8642 2.02172 15.8624 2.02172 10.9434Z" fill="#2A2850"/>
</svg>
