<svg width="83" height="79" viewBox="0 0 83 79" fill="none" xmlns="http://www.w3.org/2000/svg">
<path d="M66.8376 22.22L53.1923 20.2372L47.0899 7.87259C44.7329 3.09646 37.9173 3.09791 35.5611 7.87243L29.4587 20.2371L15.8135 22.22C10.5424 22.9859 8.43837 29.468 12.2509 33.1846L22.1248 42.8092L19.7939 56.3989C18.8937 61.6487 24.4078 65.6527 29.121 63.1756L41.3257 56.7589L53.5305 63.1756C58.2371 65.6498 63.7577 61.6479 62.8576 56.3989L60.5268 42.8091L70.4008 33.1845C74.214 29.4665 72.1064 22.9857 66.8376 22.22ZM66.5541 29.239L55.6431 39.8745C54.9939 40.5074 54.6976 41.4193 54.8508 42.313L57.4266 57.3307C57.5559 58.0849 56.7712 58.6544 56.0942 58.2988L42.6074 51.2084C41.805 50.7866 40.8459 50.7866 40.0435 51.2084L26.5568 58.2988C25.8794 58.6547 25.095 58.0847 25.2243 57.3307L27.8001 42.313C27.9533 41.4193 27.657 40.5074 27.0078 39.8745L16.0968 29.239C15.5487 28.7049 15.8485 27.7828 16.6058 27.6726L31.6843 25.4815C32.5815 25.3511 33.3573 24.7877 33.7587 23.9746L40.5021 10.3109C40.8406 9.6252 41.8103 9.62472 42.149 10.3111L48.8924 23.9746C49.2937 24.7877 50.0695 25.3512 50.9668 25.4815L66.0453 27.6726C66.8024 27.7828 67.102 28.705 66.5541 29.239Z" fill="#F59FAF"/>
<path d="M21.7493 5.67069L18.4544 1.13573C17.5598 -0.09499 15.837 -0.368124 14.6063 0.526503C13.3755 1.42081 13.1025 3.14372 13.9969 4.3746L17.2918 8.9094C18.1868 10.1408 19.9095 10.4128 21.1399 9.51862C22.3708 8.62448 22.6438 6.90157 21.7493 5.67069Z" fill="#F59FAF"/>
<path d="M10.8152 46.3108C10.3453 44.8639 8.79109 44.0713 7.34374 44.542L1.9043 46.3095C0.457268 46.7797 -0.33453 48.3338 0.135544 49.781C0.606427 51.2304 2.16323 52.0195 3.60703 51.5497L9.04647 49.7823C10.4937 49.312 11.2855 47.7578 10.8152 46.3108Z" fill="#F59FAF"/>
<path d="M68.0446 0.526654C66.8139 -0.367651 65.091 -0.0950011 64.1965 1.13588L60.9016 5.67068C60.0071 6.90156 60.2801 8.62463 61.511 9.51877C62.7424 10.4134 64.4651 10.1399 65.3591 8.90955L68.654 4.37475C69.5483 3.14387 69.2755 1.4208 68.0446 0.526654Z" fill="#F59FAF"/>
<path d="M80.7463 46.3094L75.3069 44.5419C73.8598 44.0709 72.3056 44.8636 71.8354 46.3107C71.3652 47.7577 72.157 49.3121 73.6041 49.7822L79.0436 51.5496C80.4875 52.0192 82.0442 51.2302 82.5151 49.7809C82.9853 48.3338 82.1933 46.7796 80.7463 46.3094Z" fill="#F59FAF"/>
<path d="M41.3253 67.667C39.8039 67.667 38.5704 68.9005 38.5704 70.4219V76.0134C38.5704 77.5349 39.8039 78.7683 41.3253 78.7683C42.8468 78.7683 44.0803 77.5349 44.0803 76.0134V70.4219C44.0804 68.9003 42.847 67.667 41.3253 67.667Z" fill="#F59FAF"/>
</svg>
