<svg width="33" height="29" viewBox="0 0 33 29" fill="none" xmlns="http://www.w3.org/2000/svg">
<path d="M23.3192 18.5148C24.7187 16.6185 25.4888 14.2295 25.4888 11.6967C25.4888 5.9339 21.4887 1.24561 16.5724 1.24561C11.6555 1.24561 7.65592 5.9339 7.65592 11.6967C7.65592 14.2295 8.42598 16.618 9.82601 18.5148C4.4425 20.2459 1 23.8843 1 27.934V28.4364H32.1447V27.934C32.1447 23.8847 28.7022 20.2463 23.3192 18.5148ZM16.5724 2.25021C20.9351 2.25021 24.4841 6.48794 24.4841 11.6966C24.4841 14.2585 23.6362 16.6572 22.0965 18.4514C20.6075 20.187 18.646 21.1425 16.5723 21.1425C14.4992 21.1425 12.5375 20.187 11.0481 18.4519C9.50846 16.6571 8.66044 14.2575 8.66044 11.6966C8.66061 6.48794 12.2096 2.25021 16.5724 2.25021ZM2.02523 27.4318C2.31105 23.941 5.56471 20.8256 10.5021 19.3502C10.5795 19.4346 10.6633 19.5085 10.7427 19.5898C10.8416 19.6903 10.9396 19.7913 11.0416 19.8867C11.1657 20.0017 11.2932 20.1087 11.4219 20.2157C11.5258 20.3026 11.6283 20.3909 11.7348 20.4719C11.8684 20.5733 12.0065 20.6657 12.1437 20.7582C12.2512 20.831 12.3577 20.9063 12.4677 20.9737C12.6109 21.0611 12.7581 21.1374 12.9052 21.2153C13.0158 21.2736 13.1243 21.3364 13.2368 21.3896C13.39 21.4624 13.5468 21.5222 13.7034 21.5845C13.8145 21.6287 13.9234 21.6784 14.0365 21.7176C14.2022 21.7748 14.3715 21.8185 14.5398 21.8647C14.6473 21.8939 14.7528 21.9296 14.8618 21.9546C15.0503 21.9973 15.2416 22.0249 15.433 22.0531C15.5254 22.0666 15.6158 22.0877 15.7088 22.0988C15.9941 22.1304 16.2824 22.148 16.5728 22.148C16.8631 22.148 17.151 22.1309 17.4368 22.0988C17.5317 22.0882 17.6247 22.0661 17.7196 22.052C17.9085 22.0234 18.0978 21.9968 18.2837 21.9546C18.3953 21.929 18.5037 21.8928 18.6132 21.8621C18.7795 21.8169 18.9458 21.7737 19.1085 21.7175C19.224 21.6778 19.3361 21.6266 19.4505 21.5814C19.6038 21.5201 19.7575 21.4613 19.9077 21.39C20.0227 21.3358 20.1337 21.272 20.2468 21.2117C20.3909 21.1353 20.5356 21.06 20.6763 20.9746C20.7884 20.9058 20.8963 20.8295 21.0058 20.7551C21.1419 20.6631 21.2776 20.5727 21.4097 20.4723C21.5172 20.3909 21.6206 20.3015 21.7251 20.2141C21.8532 20.1071 21.9808 20.0006 22.1039 19.8861C22.2053 19.7916 22.3028 19.6907 22.4007 19.5912C22.4811 19.5093 22.5655 19.4349 22.6433 19.3501C27.5802 20.8259 30.8339 23.9414 31.1197 27.4321H2.02523V27.4318Z" fill="#2A2850" stroke="black"/>
</svg>
